<?xml version="1.0" encoding="UTF-8" standalone="no"?>
<!-- Created with Inkscape (http://www.inkscape.org/) -->

<svg
   xmlns:dc="http://purl.org/dc/elements/1.1/"
   xmlns:cc="http://creativecommons.org/ns#"
   xmlns:rdf="http://www.w3.org/1999/02/22-rdf-syntax-ns#"
   xmlns:svg="http://www.w3.org/2000/svg"
   xmlns="http://www.w3.org/2000/svg"
   xmlns:sodipodi="http://sodipodi.sourceforge.net/DTD/sodipodi-0.dtd"
   xmlns:inkscape="http://www.inkscape.org/namespaces/inkscape"
   width="368.70062mm"
   height="65.673653mm"
   viewBox="0 0 368.70064 65.673653"
   version="1.1"
   id="svg8"
   inkscape:version="0.92.3 (2405546, 2018-03-11)"
   sodipodi:docname="3d-bioinfo-pt-banner_paths.svg"
   inkscape:export-filename="/home/manel/test/3D-BioInfo-PT logo/both.png"
   inkscape:export-xdpi="300.05792"
   inkscape:export-ydpi="300.05792">
  <defs
     id="defs2" />
  <sodipodi:namedview
     id="base"
     pagecolor="#ffffff"
     bordercolor="#666666"
     borderopacity="1.0"
     inkscape:pageopacity="0.0"
     inkscape:pageshadow="2"
     inkscape:zoom="0.70710678"
     inkscape:cx="682.39412"
     inkscape:cy="71.676499"
     inkscape:document-units="mm"
     inkscape:current-layer="layer1"
     showgrid="false"
     showguides="true"
     inkscape:guide-bbox="true"
     inkscape:snap-smooth-nodes="false"
     inkscape:snap-midpoints="true"
     inkscape:object-paths="true"
     inkscape:object-nodes="true"
     inkscape:window-width="1920"
     inkscape:window-height="1043"
     inkscape:window-x="1080"
     inkscape:window-y="551"
     inkscape:window-maximized="1"
     inkscape:snap-global="true"
     inkscape:snap-bbox="true"
     inkscape:bbox-paths="true"
     inkscape:bbox-nodes="true"
     fit-margin-top="0"
     fit-margin-left="0"
     fit-margin-right="0"
     fit-margin-bottom="0"
     inkscape:snap-page="true" />
  <metadata
     id="metadata5">
    <rdf:RDF>
      <cc:Work
         rdf:about="">
        <dc:format>image/svg+xml</dc:format>
        <dc:type
           rdf:resource="http://purl.org/dc/dcmitype/StillImage" />
        <dc:title></dc:title>
      </cc:Work>
    </rdf:RDF>
  </metadata>
  <g
     inkscape:label="Layer 1"
     inkscape:groupmode="layer"
     id="layer1"
     transform="translate(-89.640864,-199.64152)">
    <g
       id="g864"
       inkscape:export-xdpi="300.05792"
       inkscape:export-ydpi="300.05792"
       transform="matrix(0.65079861,0,0,0.65079861,43.258206,75.006762)"
       style="stroke-width:1.53657365">
      <rect
         y="191.51048"
         x="71.27037"
         height="100.9124"
         width="566.53564"
         id="rect847"
         style="opacity:1;vector-effect:none;fill:#ffffff;fill-opacity:1;fill-rule:nonzero;stroke:none;stroke-width:0.09987732;stroke-linecap:round;stroke-linejoin:round;stroke-miterlimit:4;stroke-dasharray:none;stroke-dashoffset:0.69999999;stroke-opacity:1;paint-order:normal" />
      <g
         inkscape:export-ydpi="300.05792"
         inkscape:export-xdpi="300.05792"
         transform="translate(0,-6.72503)"
         id="g1752"
         style="stroke-width:1.53657365">
        <path
           style="fill:#ee8136;stroke-width:1.53657365"
           d="m 153.60574,254.26887 h 4.4826 v -23.28333 h 1.58751 v 23.28333 h 4.4826 l -5.27637,8.72473 z"
           id="path1026"
           inkscape:connector-curvature="0" />
        <path
           style="fill:#ee8136;stroke-width:1.53657365"
           d="m 149.67562,242.46087 c -0.11213,-0.81737 -2.37251,-1.22879 -12.21181,-2.22274 -8.16461,-0.82477 -11.64631,-1.35341 -13.20617,-2.00516 -1.42575,-0.44059 -1.18366,-1.22556 -1.14476,-1.82344 l 0.84954,-1.25548 c 1.0083,-1.52225 3.47592,-4.09457 3.84314,-3.79262 0.3203,0.26337 5.34731,1.02225 11.64263,1.61011 5.2726,0.49236 9.08368,1.05954 10.03648,1.49367 0.63365,0.28871 0.67739,0.42624 0.65289,2.05291 -0.0272,1.80578 -0.38971,6.46934 -0.46194,5.94275 z"
           id="path1018"
           inkscape:connector-curvature="0"
           sodipodi:nodetypes="cscccssccc" />
        <path
           style="fill:#0a3652;stroke-width:1.53657365"
           d="m 158.36008,266.2106 v -2.73828 l 0.522,0.86317 0.52201,-0.86317 v 2.73828 c 0,4.96738 3.59068,6.85804 6.63181,6.85804 3.04113,0 6.63181,-1.89066 6.63181,-6.85804 v -2.14864 h 1.04401 v 2.14864 c 0,4.96738 -3.07022,7.90205 -7.67582,7.90205 -4.6056,0 -7.67582,-2.93467 -7.67582,-7.90205 z"
           id="path1003"
           inkscape:connector-curvature="0"
           sodipodi:nodetypes="ccccczcccszc" />
        <path
           style="fill:#0a3652;stroke-width:1.53657365"
           d="m 130.88329,266.28852 4.15016,-1.21552 c 4.01413,-1.17568 4.2152,-1.20753 6.13453,-0.97174 2.66322,0.32716 5.28435,0.94991 6.01602,1.42931 1.51138,0.9903 0.0342,2.31659 -4.69858,4.21866 -2.50681,1.00747 -12.00526,3.83426 -12.00526,3.83426 z"
           id="path1001"
           inkscape:connector-curvature="0"
           sodipodi:nodetypes="csccscc" />
        <path
           style="fill:#0a3652;stroke-width:1.53657365"
           d="m 144.30855,257.05671 c -0.0559,-0.0559 -3.09977,-0.40904 -6.76417,-0.78475 -6.94072,-0.71163 -8.61625,-1.05052 -8.75493,-1.77074 -0.0936,-0.48605 1.01731,-0.99991 3.87188,-1.79095 1.74625,-0.48391 1.87361,-0.48422 4.95106,-0.0118 7.67185,1.17777 10.43554,2.21412 9.02539,3.38444 -0.45467,0.37735 -2.19717,1.10583 -2.32923,0.97377 z"
           id="path999"
           inkscape:connector-curvature="0" />
        <path
           style="fill:#0a3652;stroke-width:1.53657365"
           d="m 134.4211,244.72142 c -9.26444,-1.49332 -10.94037,-2.57783 -6.25289,-4.04632 3.22577,-1.01057 3.41221,-1.01909 9.47373,-0.43332 9.07351,0.87685 12.03368,1.36423 12.03368,2.21909 0,0.71924 -2.10425,1.47838 -7.41176,2.53249 -1.50731,0.29936 -2.81699,0.53337 -2.91041,0.52001 -0.0934,-0.0134 -2.31297,-0.36974 -4.93235,-0.79195 z"
           id="path997"
           inkscape:connector-curvature="0"
           sodipodi:nodetypes="ccssccc" />
        <path
           style="fill:#0a3652;stroke-width:1.53657365"
           d="m 123.27552,233.7637 c 0.0894,-1.45521 0.16326,-3.02673 0.16401,-3.49227 10e-4,-0.65224 0.20953,-1.0052 0.90868,-1.53847 1.87506,-1.43018 9.18961,-3.5696 20.39165,-5.96432 6.36448,-1.36057 9.49893,-1.52076 11.55733,-0.59066 2.35149,1.06254 3.07639,2.4539 3.1069,5.96332 0.009,1.07272 -1e-5,1.9236 -1e-5,2.24896 h -1.04401 c 0,-0.47889 0.003,-1.11443 1e-5,-2.11667 -0.007,-2.63729 -0.59356,-4.18084 -1.83207,-4.8213 -2.3597,-1.22025 -5.69641,-1.07348 -11.80274,0.51914 -9.91313,2.58549 -17.8311,6.85002 -20.76285,11.18262 l -0.84954,1.25548 z"
           id="path995"
           inkscape:connector-curvature="0"
           sodipodi:nodetypes="cccscccccssscc" />
        <path
           id="path1036"
           d="m 178.46606,240.24595 h -4.4826 v 23.28333 h -1.58751 v -23.28333 h -4.4826 l 5.27637,-8.72473 z"
           style="fill:#ee8136;stroke-width:1.53657365"
           inkscape:connector-curvature="0" />
        <path
           sodipodi:nodetypes="cccccc"
           inkscape:connector-curvature="0"
           id="path1052"
           d="m 173.71172,231.11787 -0.522,-0.86317 -0.52201,0.86317 c -0.0451,-0.77322 0,-6.43236 0,-6.43236 h 1.04401 z"
           style="fill:#0a3652;stroke-width:1.53657365" />
        <path
           style="fill:#ee8136;stroke-width:1.53657365"
           d="m 145.76028,254.49107 c -1.59733,-0.62475 -3.80343,-1.11844 -10.01626,-2.08245 -6.4854,-1.00631 -8.91099,-1.53242 -9.93432,-2.15474 -0.78306,-0.47621 -0.82013,-0.57142 -0.68136,-1.75004 0.0807,-0.68553 0.22252,-2.34249 0.31515,-3.68212 0.0834,-1.20645 0.19371,-2.70778 0.19371,-2.70778 0.47742,0.60765 1.34412,1.00334 2.59188,1.38765 5.29774,1.06832 10.29284,1.74068 15.05557,2.69407 1.23693,0.24646 2.66568,0.64892 3.175,0.89434 1.0445,0.3306 0.87296,2.32229 0.83314,3.72969 -0.0604,2.1357 -0.30783,4.76614 -0.30783,4.76614 0,0 0.0545,-0.61856 -1.22469,-1.09438 z"
           id="path1024"
           inkscape:connector-curvature="0"
           sodipodi:nodetypes="cccsscccccccc" />
        <path
           style="fill:#ee8136;stroke-width:1.53657365"
           d="m 139.63386,263.94413 c -4.08484,-0.31848 -9.27459,-1.10977 -10.3226,-1.29225 -1.04801,-0.18248 -0.91197,-2.4138 -0.80609,-4.02122 0.10588,-1.60742 0.27901,-4.19522 0.27901,-4.19522 0,0 0.10102,0.49688 0.96075,0.74117 0.85972,0.24429 4.03553,0.70908 7.64194,1.07967 7.49236,0.76992 7.52918,0.77527 9.071,1.31926 1.93911,0.68416 1.91764,0.63109 1.70622,4.21704 -0.11599,1.96736 -0.41142,4.52636 -0.41142,4.52636 0,0 -0.009,-0.43341 -0.59617,-0.8059 -0.58697,-0.37249 -2.73092,-1.06343 -7.52264,-1.56891 z"
           id="path1030"
           inkscape:connector-curvature="0"
           sodipodi:nodetypes="czzczccsczc" />
        <path
           style="opacity:1;vector-effect:none;fill:#046a38;fill-opacity:1;fill-rule:nonzero;stroke:none;stroke-width:0.09987728;stroke-linecap:round;stroke-linejoin:round;stroke-miterlimit:4;stroke-dasharray:none;stroke-dashoffset:0.69999999;stroke-opacity:1;paint-order:normal"
           d="m 149.55263,206.42512 c -22.6821,0.78864 -40.82852,19.42126 -40.82852,42.29561 0,22.87435 18.14642,41.5075 40.82852,42.29613 v -7.01198 c -18.81108,-0.7845 -33.82171,-16.2802 -33.82171,-35.28415 0,-19.00395 15.01062,-34.49965 33.82171,-35.28415 z"
           id="path1095"
           inkscape:connector-curvature="0" />
        <path
           style="opacity:1;vector-effect:none;fill:#da291c;fill-opacity:1;fill-rule:nonzero;stroke:none;stroke-width:0.09987728;stroke-linecap:round;stroke-linejoin:round;stroke-miterlimit:4;stroke-dasharray:none;stroke-dashoffset:0.69999999;stroke-opacity:1;paint-order:normal"
           d="m 152.54573,206.42512 v 7.01146 c 18.81108,0.7845 33.82119,16.2802 33.82119,35.28415 0,19.00395 -15.01011,34.49965 -33.82119,35.28415 v 7.01198 c 22.68209,-0.78863 40.82851,-19.42178 40.82851,-42.29613 0,-22.87435 -18.14642,-41.50697 -40.82851,-42.29561 z"
           id="path1084"
           inkscape:connector-curvature="0" />
      </g>
    </g>
    <g
       aria-label="3D-BioInfo-PT"
       style="font-style:normal;font-weight:normal;font-size:10.58333302px;line-height:1.25;font-family:sans-serif;text-align:end;letter-spacing:0px;word-spacing:0px;text-anchor:end;fill:#0a3652;fill-opacity:1;stroke:none;stroke-width:0.26458332"
       id="text833">
      <path
         d="m 199.38696,210.2345 v 2.13182 h 6.02891 l -4.18648,3.55948 1.23472,1.63986 c 0.48232,-0.29903 1.09003,-0.47267 1.72669,-0.47267 1.47588,0 2.95175,0.87781 2.95175,2.44051 0,1.47588 -1.35047,2.37298 -2.75883,2.37298 -1.43729,0 -2.70095,-0.8971 -2.76848,-2.28616 h -2.30545 c 0.0579,2.75883 2.43085,4.45657 5.07393,4.45657 2.68166,0 5.06429,-1.77491 5.06429,-4.44693 0,-1.418 -0.70417,-2.69131 -1.86173,-3.4823 -0.83922,-0.57878 -1.89067,-0.84887 -2.99999,-0.76206 l 3.74276,-3.01928 v -2.13182 z"
         style="font-style:normal;font-variant:normal;font-weight:600;font-stretch:normal;font-size:19.75555611px;font-family:'NEXT ART';-inkscape-font-specification:'NEXT ART Semi-Bold';text-align:start;text-anchor:start;fill:#0a3652;fill-opacity:1;stroke-width:0.26458332"
         id="path837"
         inkscape:connector-curvature="0" />
      <path
         d="m 215.98818,221.92577 h -1.99678 v -9.54015 h 1.99678 c 1.12862,0 1.71704,0.1254 2.24758,0.33761 1.79421,0.68489 2.95176,2.39228 2.95176,4.43729 0,2.04501 -1.15755,3.7524 -2.95176,4.42763 -0.53054,0.21222 -1.11896,0.33762 -2.24758,0.33762 z m 0,-11.69127 h -4.30223 v 13.83275 h 4.30223 c 1.22508,0 1.91961,-0.10611 2.59485,-0.29904 2.86494,-0.85852 4.91959,-3.41478 4.91959,-6.60769 0,-3.19292 -2.05465,-5.75882 -4.91959,-6.6077 -0.67524,-0.20257 -1.36977,-0.31832 -2.59485,-0.31832 z"
         style="font-style:normal;font-variant:normal;font-weight:600;font-stretch:normal;font-size:19.75555611px;font-family:'NEXT ART';-inkscape-font-specification:'NEXT ART Semi-Bold';text-align:start;text-anchor:start;fill:#0a3652;fill-opacity:1;stroke-width:0.26458332"
         id="path839"
         inkscape:connector-curvature="0" />
      <path
         d="m 225.54763,218.35666 h 7.33117 v -2.13183 h -7.33117 z"
         style="font-style:normal;font-variant:normal;font-weight:600;font-stretch:normal;font-size:19.75555611px;font-family:'NEXT ART';-inkscape-font-specification:'NEXT ART Semi-Bold';text-align:start;text-anchor:start;fill:#0a3652;fill-opacity:1;stroke-width:0.26458332"
         id="path841"
         inkscape:connector-curvature="0" />
      <path
         d="m 237.87556,215.89686 v -3.57877 h 2.91318 c 0.60771,0 0.90674,0.0482 1.17684,0.16399 0.65595,0.27974 1.14791,0.83922 1.14791,1.63022 0,0.79099 -0.49196,1.35047 -1.14791,1.63022 -0.27974,0.10611 -0.57878,0.15434 -1.17684,0.15434 z m 0,6.05785 v -4.07072 h 3.72346 c 0.68489,0 1.01286,0.0579 1.31189,0.18328 0.75241,0.29903 1.2926,0.96462 1.2926,1.84243 0,0.9164 -0.55948,1.5627 -1.2926,1.86173 -0.30868,0.11576 -0.63665,0.18328 -1.2926,0.18328 z m -2.30546,2.11254 h 6.45336 c 1.06109,0 1.72668,-0.17364 2.3151,-0.47267 1.2926,-0.65595 2.14147,-1.96784 2.14147,-3.59806 0,-1.57234 -0.91639,-2.80706 -2.23793,-3.42442 0.68488,-0.63666 1.09003,-1.48553 1.09003,-2.43086 0,-1.60128 -0.83923,-2.84565 -2.09324,-3.46301 -0.55949,-0.28939 -1.20579,-0.44373 -2.209,-0.44373 h -5.45979 z"
         style="font-style:normal;font-variant:normal;font-weight:600;font-stretch:normal;font-size:19.75555611px;font-family:'NEXT ART';-inkscape-font-specification:'NEXT ART Semi-Bold';text-align:start;text-anchor:start;fill:#0a3652;fill-opacity:1;stroke-width:0.26458332"
         id="path843"
         inkscape:connector-curvature="0" />
      <path
         d="m 248.53469,224.06725 h 2.3151 V 210.2345 h -2.3151 z"
         style="font-style:normal;font-variant:normal;font-weight:600;font-stretch:normal;font-size:19.75555611px;font-family:'NEXT ART';-inkscape-font-specification:'NEXT ART Semi-Bold';text-align:start;text-anchor:start;fill:#0a3652;fill-opacity:1;stroke-width:0.26458332"
         id="path845"
         inkscape:connector-curvature="0" />
      <path
         d="m 266.93012,217.15087 c 0,-3.89709 -2.99999,-6.91637 -7.03213,-6.91637 -4.03214,0 -7.02248,3.01928 -7.02248,6.91637 0,3.89709 2.99034,6.91638 7.02248,6.91638 4.03214,0 7.03213,-3.01929 7.03213,-6.91638 z m -2.36333,0 c 0,2.69131 -1.89067,4.75561 -4.6688,4.75561 -2.76848,0 -4.66879,-2.0643 -4.66879,-4.75561 0,-2.69131 1.90031,-4.7749 4.66879,-4.7749 2.77813,0 4.6688,2.08359 4.6688,4.7749 z"
         style="font-style:normal;font-variant:normal;font-weight:600;font-stretch:normal;font-size:19.75555611px;font-family:'NEXT ART';-inkscape-font-specification:'NEXT ART Semi-Bold';text-align:start;text-anchor:start;fill:#0a3652;fill-opacity:1;stroke-width:0.26458332"
         id="path847"
         inkscape:connector-curvature="0" />
      <path
         d="m 268.94619,224.06725 h 2.3151 V 210.2345 h -2.3151 z"
         style="font-style:normal;font-variant:normal;font-weight:600;font-stretch:normal;font-size:19.75555611px;font-family:'NEXT ART';-inkscape-font-specification:'NEXT ART Semi-Bold';text-align:start;text-anchor:start;fill:#0a3652;fill-opacity:1;stroke-width:0.26458332"
         id="path849"
         inkscape:connector-curvature="0" />
      <path
         d="m 276.26771,224.06725 v -9.65592 l 8.66234,9.65592 h 1.24437 V 210.2345 h -2.3151 v 9.64627 l -8.6527,-9.64627 h -1.24437 v 13.83275 z"
         style="font-style:normal;font-variant:normal;font-weight:600;font-stretch:normal;font-size:19.75555611px;font-family:'NEXT ART';-inkscape-font-specification:'NEXT ART Semi-Bold';text-align:start;text-anchor:start;fill:#0a3652;fill-opacity:1;stroke-width:0.26458332"
         id="path851"
         inkscape:connector-curvature="0" />
      <path
         d="m 288.89467,210.2345 v 13.83275 h 2.31511 v -6.51124 h 5.52731 v -2.14147 h -5.52731 v -3.03857 h 7.12859 v -2.14147 z"
         style="font-style:normal;font-variant:normal;font-weight:600;font-stretch:normal;font-size:19.75555611px;font-family:'NEXT ART';-inkscape-font-specification:'NEXT ART Semi-Bold';text-align:start;text-anchor:start;fill:#0a3652;fill-opacity:1;stroke-width:0.26458332"
         id="path853"
         inkscape:connector-curvature="0" />
      <path
         d="m 313.11645,217.15087 c 0,-3.89709 -2.99999,-6.91637 -7.03213,-6.91637 -4.03214,0 -7.02248,3.01928 -7.02248,6.91637 0,3.89709 2.99034,6.91638 7.02248,6.91638 4.03214,0 7.03213,-3.01929 7.03213,-6.91638 z m -2.36334,0 c 0,2.69131 -1.89067,4.75561 -4.66879,4.75561 -2.76848,0 -4.6688,-2.0643 -4.6688,-4.75561 0,-2.69131 1.90032,-4.7749 4.6688,-4.7749 2.77812,0 4.66879,2.08359 4.66879,4.7749 z"
         style="font-style:normal;font-variant:normal;font-weight:600;font-stretch:normal;font-size:19.75555611px;font-family:'NEXT ART';-inkscape-font-specification:'NEXT ART Semi-Bold';text-align:start;text-anchor:start;fill:#0a3652;fill-opacity:1;stroke-width:0.26458332"
         id="path855"
         inkscape:connector-curvature="0" />
      <path
         d="m 315.14217,218.35666 h 7.33116 v -2.13183 h -7.33116 z"
         style="font-style:normal;font-variant:normal;font-weight:600;font-stretch:normal;font-size:19.75555611px;font-family:'NEXT ART';-inkscape-font-specification:'NEXT ART Semi-Bold';text-align:start;text-anchor:start;fill:#0a3652;fill-opacity:1;stroke-width:0.26458332"
         id="path857"
         inkscape:connector-curvature="0" />
      <path
         d="m 327.4701,216.0512 v -3.66558 h 3.86815 c 0.62701,0 0.92604,0.0579 1.20579,0.17363 0.67523,0.27974 1.15755,0.86816 1.15755,1.6688 0,0.81029 -0.50161,1.38907 -1.15755,1.65916 -0.27975,0.11576 -0.58843,0.16399 -1.19614,0.16399 z m 0,8.01605 v -5.87458 h 4.15754 c 1.07074,0 1.76527,-0.19293 2.36334,-0.53055 1.20578,-0.65594 1.98713,-1.9196 1.98713,-3.44371 0,-1.5627 -0.78135,-2.80707 -1.97749,-3.45337 -0.59807,-0.34726 -1.30224,-0.53054 -2.37298,-0.53054 h -6.463 v 13.83275 z"
         style="font-style:normal;font-variant:normal;font-weight:600;font-stretch:normal;font-size:19.75555611px;font-family:'NEXT ART';-inkscape-font-specification:'NEXT ART Semi-Bold';text-align:start;text-anchor:start;fill:#0a3652;fill-opacity:1;stroke-width:0.26458332"
         id="path859"
         inkscape:connector-curvature="0" />
      <path
         d="m 337.10672,210.22485 v 2.16077 h 4.67844 v 11.68163 h 2.3151 v -11.68163 h 4.69774 v -2.16077 z"
         style="font-style:normal;font-variant:normal;font-weight:600;font-stretch:normal;font-size:19.75555611px;font-family:'NEXT ART';-inkscape-font-specification:'NEXT ART Semi-Bold';text-align:start;text-anchor:start;fill:#0a3652;fill-opacity:1;stroke-width:0.26458332"
         id="path861"
         inkscape:connector-curvature="0" />
    </g>
    <g
       aria-label="The Portuguese community of Structural Bioinformatics researchers "
       transform="matrix(0.26458333,0,0,0.26458333,95.337312,202.01928)"
       style="font-style:normal;font-weight:normal;font-size:40px;line-height:1.25;font-family:sans-serif;text-align:end;letter-spacing:0px;word-spacing:0px;text-anchor:end;fill:#0a3652;fill-opacity:1;stroke:none"
       id="flowRoot839">
      <path
         d="m 392.9668,119.59961 v 3.28125 h 9.76562 v 24.74609 h 3.4961 v -24.74609 h 9.78515 v -3.28125 z"
         style="font-style:normal;font-variant:normal;font-weight:normal;font-stretch:normal;font-family:'NEXT ART';-inkscape-font-specification:'NEXT ART';text-align:start;text-anchor:start;fill:#0a3652;fill-opacity:1"
         id="path864"
         inkscape:connector-curvature="0" />
      <path
         d="m 439.08008,119.59961 v 11.07422 H 423.5918 v -11.07422 h -3.4961 v 28.02734 h 3.4961 v -13.6914 h 15.48828 v 13.6914 h 3.49609 v -28.02734 z"
         style="font-style:normal;font-variant:normal;font-weight:normal;font-stretch:normal;font-family:'NEXT ART';-inkscape-font-specification:'NEXT ART';text-align:start;text-anchor:start;fill:#0a3652;fill-opacity:1"
         id="path866"
         inkscape:connector-curvature="0" />
      <path
         d="m 448.2207,119.59961 v 28.02734 h 18.53516 v -3.24218 h -15.05859 v -10.52735 h 11.85546 v -3.22265 h -11.85546 v -7.77344 h 15.05859 v -3.26172 z"
         style="font-style:normal;font-variant:normal;font-weight:normal;font-stretch:normal;font-family:'NEXT ART';-inkscape-font-specification:'NEXT ART';text-align:start;text-anchor:start;fill:#0a3652;fill-opacity:1"
         id="path868"
         inkscape:connector-curvature="0" />
      <path
         d="m 485.52539,131.8457 v -8.94531 h 8.61328 c 1.36719,0 2.08985,0.13672 2.71485,0.41016 1.60156,0.66406 2.73437,2.1289 2.73437,4.0625 0,1.93359 -1.13281,3.3789 -2.73437,4.0625 -0.64454,0.2539 -1.34766,0.41015 -2.69532,0.41015 z m 0,15.78125 v -12.55859 h 9.00391 c 1.93359,0 3.14453,-0.29297 4.17968,-0.80078 2.63672,-1.23047 4.33594,-3.8086 4.33594,-6.91406 0,-3.16407 -1.69922,-5.72266 -4.3164,-6.9336 -1.05469,-0.50781 -2.26563,-0.80078 -4.19922,-0.80078 h -12.48047 v 28.00781 z"
         style="font-style:normal;font-variant:normal;font-weight:normal;font-stretch:normal;font-family:'NEXT ART';-inkscape-font-specification:'NEXT ART';text-align:start;text-anchor:start;fill:#0a3652;fill-opacity:1"
         id="path870"
         inkscape:connector-curvature="0" />
      <path
         d="m 534.1582,133.60352 c 0,-7.91016 -6.07422,-14.00391 -14.19922,-14.00391 -8.10546,0 -14.19921,6.09375 -14.19921,14.00391 0,7.94921 6.09375,14.02343 14.19921,14.02343 8.125,0 14.19922,-6.07422 14.19922,-14.02343 z m -3.53515,0 c 0,6.11328 -4.45313,10.72265 -10.66407,10.72265 -6.21093,0 -10.66406,-4.60937 -10.66406,-10.72265 0,-6.09375 4.45313,-10.70313 10.66406,-10.70313 6.21094,0 10.66407,4.60938 10.66407,10.70313 z"
         style="font-style:normal;font-variant:normal;font-weight:normal;font-stretch:normal;font-family:'NEXT ART';-inkscape-font-specification:'NEXT ART';text-align:start;text-anchor:start;fill:#0a3652;fill-opacity:1"
         id="path872"
         inkscape:connector-curvature="0" />
      <path
         d="m 541.93164,147.62695 v -12.55859 h 7.16797 l 7.55859,12.55859 h 4.0625 l -7.8125,-12.69531 c 0.64453,-0.11719 1.21094,-0.27344 1.73828,-0.46875 1.34766,-0.50781 2.5,-1.36719 3.35938,-2.55859 0.91797,-1.26953 1.42578,-2.83203 1.42578,-4.55078 0,-3.16407 -1.69922,-5.72266 -4.29687,-6.91407 -1.05469,-0.52734 -2.26563,-0.82031 -4.21875,-0.82031 h -12.46094 v 28.00781 z m 0,-15.78125 v -8.94531 h 8.61328 c 1.36719,0 2.07031,0.13672 2.71485,0.41016 1.60156,0.68359 2.73437,2.14843 2.73437,4.0625 0,1.95312 -1.15234,3.39843 -2.73437,4.0625 -0.64454,0.27343 -1.34766,0.41015 -2.71485,0.41015 z"
         style="font-style:normal;font-variant:normal;font-weight:normal;font-stretch:normal;font-family:'NEXT ART';-inkscape-font-specification:'NEXT ART';text-align:start;text-anchor:start;fill:#0a3652;fill-opacity:1"
         id="path874"
         inkscape:connector-curvature="0" />
      <path
         d="m 562.3418,119.59961 v 3.28125 h 9.76562 v 24.74609 h 3.4961 v -24.74609 h 9.78515 v -3.28125 z"
         style="font-style:normal;font-variant:normal;font-weight:normal;font-stretch:normal;font-family:'NEXT ART';-inkscape-font-specification:'NEXT ART';text-align:start;text-anchor:start;fill:#0a3652;fill-opacity:1"
         id="path876"
         inkscape:connector-curvature="0" />
      <path
         d="m 589.31445,119.59961 v 16.17187 c 0,2.03125 0.25391,3.39844 0.70313,4.64844 1.5039,4.25781 5.35156,7.20703 10.41015,7.20703 5.0586,0 8.90625,-2.94922 10.39063,-7.20703 0.46875,-1.25 0.74219,-2.61719 0.74219,-4.64844 v -16.17187 h -3.4961 v 16.17187 c 0,1.58204 -0.13672,2.53907 -0.42968,3.41797 -0.9961,3.02735 -3.65235,5.15625 -7.22657,5.15625 -3.51562,0 -6.17187,-2.1289 -7.16797,-5.15625 -0.29296,-0.8789 -0.44921,-1.83593 -0.44921,-3.41797 v -16.17187 z"
         style="font-style:normal;font-variant:normal;font-weight:normal;font-stretch:normal;font-family:'NEXT ART';-inkscape-font-specification:'NEXT ART';text-align:start;text-anchor:start;fill:#0a3652;fill-opacity:1"
         id="path878"
         inkscape:connector-curvature="0" />
      <path
         d="m 639.58789,123.29102 c -2.5,-2.34375 -5.87891,-3.69141 -9.70703,-3.69141 -8.06641,0 -14.19922,6.09375 -14.19922,14.00391 0,8.02734 6.25,14.02343 14.19922,14.02343 7.98828,0 14.0625,-6.07422 14.0625,-14.02343 0,-0.9961 -0.0977,-1.99219 -0.3125,-2.92969 h -14.14063 v 3.28125 h 10.9375 c -0.21484,6.13281 -4.70703,10.37109 -10.54687,10.37109 -6.21094,0 -10.68359,-4.66797 -10.68359,-10.72265 0,-6.11329 4.51171,-10.74219 10.68359,-10.74219 3.02734,0 5.64453,1.13281 7.55859,3.02734 z"
         style="font-style:normal;font-variant:normal;font-weight:normal;font-stretch:normal;font-family:'NEXT ART';-inkscape-font-specification:'NEXT ART';text-align:start;text-anchor:start;fill:#0a3652;fill-opacity:1"
         id="path880"
         inkscape:connector-curvature="0" />
      <path
         d="m 647.98633,119.59961 v 16.17187 c 0,2.03125 0.2539,3.39844 0.70312,4.64844 1.50391,4.25781 5.35157,7.20703 10.41016,7.20703 5.05859,0 8.90625,-2.94922 10.39062,-7.20703 0.46875,-1.25 0.74219,-2.61719 0.74219,-4.64844 v -16.17187 h -3.49609 v 16.17187 c 0,1.58204 -0.13672,2.53907 -0.42969,3.41797 -0.99609,3.02735 -3.65234,5.15625 -7.22656,5.15625 -3.51563,0 -6.17188,-2.1289 -7.16797,-5.15625 -0.29297,-0.8789 -0.44922,-1.83593 -0.44922,-3.41797 v -16.17187 z"
         style="font-style:normal;font-variant:normal;font-weight:normal;font-stretch:normal;font-family:'NEXT ART';-inkscape-font-specification:'NEXT ART';text-align:start;text-anchor:start;fill:#0a3652;fill-opacity:1"
         id="path882"
         inkscape:connector-curvature="0" />
      <path
         d="m 675.7207,119.59961 v 28.02734 h 18.53516 v -3.24218 h -15.05859 v -10.52735 h 11.85546 v -3.22265 h -11.85546 v -7.77344 h 15.05859 v -3.26172 z"
         style="font-style:normal;font-variant:normal;font-weight:normal;font-stretch:normal;font-family:'NEXT ART';-inkscape-font-specification:'NEXT ART';text-align:start;text-anchor:start;fill:#0a3652;fill-opacity:1"
         id="path884"
         inkscape:connector-curvature="0" />
      <path
         d="m 697.14648,142.45117 c 3.41797,3.55469 7.5586,5.17578 11.38672,5.17578 5.87891,0 10,-3.65234 10,-8.35937 0,-6.23047 -5.89843,-7.57813 -9.98047,-8.35938 -4.47265,-0.83984 -7.30468,-1.48437 -7.30468,-4.08203 0,-2.26562 2.24609,-3.98437 5.74218,-3.98437 2.85157,0 5.6836,1.21093 7.65625,3.22265 l 2.16797,-2.42187 c -2.7539,-2.67578 -6.38672,-4.04297 -9.76562,-4.04297 -5.78125,0.0195 -9.21875,3.28125 -9.21875,7.40234 0,4.80469 4.55078,6.07422 9.10156,7.01172 4.19922,0.87891 8.16406,1.67969 8.16406,5.19531 0,2.85157 -2.59765,5.13672 -6.58203,5.13672 -3.28125,-0.0195 -6.58203,-1.58203 -9.10156,-4.33593 z"
         style="font-style:normal;font-variant:normal;font-weight:normal;font-stretch:normal;font-family:'NEXT ART';-inkscape-font-specification:'NEXT ART';text-align:start;text-anchor:start;fill:#0a3652;fill-opacity:1"
         id="path886"
         inkscape:connector-curvature="0" />
      <path
         d="m 722.75195,119.59961 v 28.02734 h 18.53516 v -3.24218 h -15.05859 v -10.52735 h 11.85546 v -3.22265 h -11.85546 v -7.77344 h 15.05859 v -3.26172 z"
         style="font-style:normal;font-variant:normal;font-weight:normal;font-stretch:normal;font-family:'NEXT ART';-inkscape-font-specification:'NEXT ART';text-align:start;text-anchor:start;fill:#0a3652;fill-opacity:1"
         id="path888"
         inkscape:connector-curvature="0" />
      <path
         d="m 782.92773,129.24805 c -1.79687,-5.87891 -7.10937,-9.64844 -13.51562,-9.64844 -8.06641,0 -14.19922,6.09375 -14.19922,14.00391 0,8.00781 6.23047,14.02343 14.19922,14.02343 6.52344,0 11.875,-4.0039 13.59375,-9.84375 l -3.33984,-1.03515 c -1.34766,4.60937 -5.21485,7.57812 -10.25391,7.57812 -6.19141,0 -10.66406,-4.66797 -10.66406,-10.72265 0,-6.11329 4.49218,-10.72266 10.66406,-10.72266 5,0 8.86719,2.94922 10.23437,7.44141 z"
         style="font-style:normal;font-variant:normal;font-weight:normal;font-stretch:normal;font-family:'NEXT ART';-inkscape-font-specification:'NEXT ART';text-align:start;text-anchor:start;fill:#0a3652;fill-opacity:1"
         id="path890"
         inkscape:connector-curvature="0" />
      <path
         d="m 814.1582,133.60352 c 0,-7.91016 -6.07422,-14.00391 -14.19922,-14.00391 -8.10546,0 -14.19921,6.09375 -14.19921,14.00391 0,7.94921 6.09375,14.02343 14.19921,14.02343 8.125,0 14.19922,-6.07422 14.19922,-14.02343 z m -3.53515,0 c 0,6.11328 -4.45313,10.72265 -10.66407,10.72265 -6.21093,0 -10.66406,-4.60937 -10.66406,-10.72265 0,-6.09375 4.45313,-10.70313 10.66406,-10.70313 6.21094,0 10.66407,4.60938 10.66407,10.70313 z"
         style="font-style:normal;font-variant:normal;font-weight:normal;font-stretch:normal;font-family:'NEXT ART';-inkscape-font-specification:'NEXT ART';text-align:start;text-anchor:start;fill:#0a3652;fill-opacity:1"
         id="path892"
         inkscape:connector-curvature="0" />
      <path
         d="m 818.45508,119.59961 v 28.02734 h 3.49609 V 126.5332 l 10.625,13.4375 10.66406,-13.4375 v 21.09375 h 3.47657 v -28.02734 h -1.83594 l -12.28516,15.3125 -12.28515,-15.3125 z"
         style="font-style:normal;font-variant:normal;font-weight:normal;font-stretch:normal;font-family:'NEXT ART';-inkscape-font-specification:'NEXT ART';text-align:start;text-anchor:start;fill:#0a3652;fill-opacity:1"
         id="path894"
         inkscape:connector-curvature="0" />
      <path
         d="m 852.36133,119.59961 v 28.02734 h 3.49609 V 126.5332 l 10.625,13.4375 10.66406,-13.4375 v 21.09375 h 3.47657 v -28.02734 h -1.83594 l -12.28516,15.3125 -12.28515,-15.3125 z"
         style="font-style:normal;font-variant:normal;font-weight:normal;font-stretch:normal;font-family:'NEXT ART';-inkscape-font-specification:'NEXT ART';text-align:start;text-anchor:start;fill:#0a3652;fill-opacity:1"
         id="path896"
         inkscape:connector-curvature="0" />
      <path
         d="m 886.11133,119.59961 v 16.17187 c 0,2.03125 0.2539,3.39844 0.70312,4.64844 1.50391,4.25781 5.35157,7.20703 10.41016,7.20703 5.05859,0 8.90625,-2.94922 10.39062,-7.20703 0.46875,-1.25 0.74219,-2.61719 0.74219,-4.64844 v -16.17187 h -3.49609 v 16.17187 c 0,1.58204 -0.13672,2.53907 -0.42969,3.41797 -0.99609,3.02735 -3.65234,5.15625 -7.22656,5.15625 -3.51563,0 -6.17188,-2.1289 -7.16797,-5.15625 -0.29297,-0.8789 -0.44922,-1.83593 -0.44922,-3.41797 v -16.17187 z"
         style="font-style:normal;font-variant:normal;font-weight:normal;font-stretch:normal;font-family:'NEXT ART';-inkscape-font-specification:'NEXT ART';text-align:start;text-anchor:start;fill:#0a3652;fill-opacity:1"
         id="path898"
         inkscape:connector-curvature="0" />
      <path
         d="m 917.3418,147.62695 v -21.42578 l 18.47656,21.42578 h 1.83594 v -28.02734 h -3.47657 v 21.40625 l -18.47656,-21.40625 h -1.85547 v 28.02734 z"
         style="font-style:normal;font-variant:normal;font-weight:normal;font-stretch:normal;font-family:'NEXT ART';-inkscape-font-specification:'NEXT ART';text-align:start;text-anchor:start;fill:#0a3652;fill-opacity:1"
         id="path900"
         inkscape:connector-curvature="0" />
      <path
         d="m 943.29883,147.62695 h 3.49609 v -28.02734 h -3.49609 z"
         style="font-style:normal;font-variant:normal;font-weight:normal;font-stretch:normal;font-family:'NEXT ART';-inkscape-font-specification:'NEXT ART';text-align:start;text-anchor:start;fill:#0a3652;fill-opacity:1"
         id="path902"
         inkscape:connector-curvature="0" />
      <path
         d="m 950.85742,119.59961 v 3.28125 h 9.76563 v 24.74609 h 3.49609 v -24.74609 h 9.78516 v -3.28125 z"
         style="font-style:normal;font-variant:normal;font-weight:normal;font-stretch:normal;font-family:'NEXT ART';-inkscape-font-specification:'NEXT ART';text-align:start;text-anchor:start;fill:#0a3652;fill-opacity:1"
         id="path904"
         inkscape:connector-curvature="0" />
      <path
         d="m 989.17773,147.62695 v -11.52343 l 10.01954,-16.48438 h -4.04297 l -7.71485,12.94922 -7.69531,-12.94922 h -4.0625 l 10,16.48438 v 11.52343 z"
         style="font-style:normal;font-variant:normal;font-weight:normal;font-stretch:normal;font-family:'NEXT ART';-inkscape-font-specification:'NEXT ART';text-align:start;text-anchor:start;fill:#0a3652;fill-opacity:1"
         id="path906"
         inkscape:connector-curvature="0" />
      <path
         d="m 1039.9395,133.60352 c 0,-7.91016 -6.0743,-14.00391 -14.1993,-14.00391 -8.1054,0 -14.1992,6.09375 -14.1992,14.00391 0,7.94921 6.0938,14.02343 14.1992,14.02343 8.125,0 14.1993,-6.07422 14.1993,-14.02343 z m -3.5352,0 c 0,6.11328 -4.4531,10.72265 -10.6641,10.72265 -6.2109,0 -10.664,-4.60937 -10.664,-10.72265 0,-6.09375 4.4531,-10.70313 10.664,-10.70313 6.211,0 10.6641,4.60938 10.6641,10.70313 z"
         style="font-style:normal;font-variant:normal;font-weight:normal;font-stretch:normal;font-family:'NEXT ART';-inkscape-font-specification:'NEXT ART';text-align:start;text-anchor:start;fill:#0a3652;fill-opacity:1"
         id="path908"
         inkscape:connector-curvature="0" />
      <path
         d="m 1044.2363,119.59961 v 28.02734 h 3.4766 v -13.75 h 11.8555 v -3.24218 h -11.8555 v -7.77344 h 15.0586 v -3.26172 z"
         style="font-style:normal;font-variant:normal;font-weight:normal;font-stretch:normal;font-family:'NEXT ART';-inkscape-font-specification:'NEXT ART';text-align:start;text-anchor:start;fill:#0a3652;fill-opacity:1"
         id="path910"
         inkscape:connector-curvature="0" />
      <path
         d="m 393.00586,194.05273 c 3.41797,3.55469 7.55859,5.17579 11.38672,5.17579 5.8789,0 10,-3.65235 10,-8.35938 0,-6.23047 -5.89844,-7.57812 -9.98047,-8.35937 -4.47266,-0.83985 -7.30469,-1.48438 -7.30469,-4.08204 0,-2.26562 2.2461,-3.98437 5.74219,-3.98437 2.85156,0 5.68359,1.21094 7.65625,3.22266 l 2.16797,-2.42188 c -2.75391,-2.67578 -6.38672,-4.04297 -9.76563,-4.04297 -5.78125,0.0195 -9.21875,3.28125 -9.21875,7.40235 0,4.80468 4.55078,6.07421 9.10157,7.01171 4.19921,0.87891 8.16406,1.67969 8.16406,5.19532 0,2.85156 -2.59766,5.13672 -6.58203,5.13672 -3.28125,-0.0195 -6.58203,-1.58204 -9.10157,-4.33594 z"
         style="font-style:normal;font-variant:normal;font-weight:normal;font-stretch:normal;font-family:'NEXT ART';-inkscape-font-specification:'NEXT ART';text-align:start;text-anchor:start;fill:#0a3652;fill-opacity:1"
         id="path912"
         inkscape:connector-curvature="0" />
      <path
         d="m 415.54492,171.20117 v 3.28125 h 9.76563 v 24.7461 h 3.49609 v -24.7461 h 9.78516 v -3.28125 z"
         style="font-style:normal;font-variant:normal;font-weight:normal;font-stretch:normal;font-family:'NEXT ART';-inkscape-font-specification:'NEXT ART';text-align:start;text-anchor:start;fill:#0a3652;fill-opacity:1"
         id="path914"
         inkscape:connector-curvature="0" />
      <path
         d="m 446.15039,199.22852 v -12.5586 h 7.16797 l 7.55859,12.5586 h 4.0625 l -7.8125,-12.69532 c 0.64453,-0.11718 1.21094,-0.27343 1.73828,-0.46875 1.34766,-0.50781 2.5,-1.36718 3.35938,-2.55859 0.91797,-1.26953 1.42578,-2.83203 1.42578,-4.55078 0,-3.16406 -1.69922,-5.72266 -4.29687,-6.91406 -1.05469,-0.52735 -2.26563,-0.82032 -4.21875,-0.82032 h -12.46094 v 28.00782 z m 0,-15.78125 v -8.94532 h 8.61328 c 1.36719,0 2.07031,0.13672 2.71485,0.41016 1.60156,0.68359 2.73437,2.14844 2.73437,4.0625 0,1.95312 -1.15234,3.39844 -2.73437,4.0625 -0.64454,0.27344 -1.34766,0.41016 -2.71485,0.41016 z"
         style="font-style:normal;font-variant:normal;font-weight:normal;font-stretch:normal;font-family:'NEXT ART';-inkscape-font-specification:'NEXT ART';text-align:start;text-anchor:start;fill:#0a3652;fill-opacity:1"
         id="path916"
         inkscape:connector-curvature="0" />
      <path
         d="m 468.68945,171.20117 v 16.17188 c 0,2.03125 0.25391,3.39843 0.70313,4.64843 1.5039,4.25782 5.35156,7.20704 10.41015,7.20704 5.0586,0 8.90625,-2.94922 10.39063,-7.20704 0.46875,-1.25 0.74219,-2.61718 0.74219,-4.64843 v -16.17188 h -3.4961 v 16.17188 c 0,1.58203 -0.13672,2.53906 -0.42968,3.41797 -0.9961,3.02734 -3.65235,5.15625 -7.22657,5.15625 -3.51562,0 -6.17187,-2.12891 -7.16797,-5.15625 -0.29296,-0.87891 -0.44921,-1.83594 -0.44921,-3.41797 v -16.17188 z"
         style="font-style:normal;font-variant:normal;font-weight:normal;font-stretch:normal;font-family:'NEXT ART';-inkscape-font-specification:'NEXT ART';text-align:start;text-anchor:start;fill:#0a3652;fill-opacity:1"
         id="path918"
         inkscape:connector-curvature="0" />
      <path
         d="m 522.77148,180.84961 c -1.79687,-5.87891 -7.10937,-9.64844 -13.51562,-9.64844 -8.06641,0 -14.19922,6.09375 -14.19922,14.00391 0,8.00781 6.23047,14.02344 14.19922,14.02344 6.52344,0 11.875,-4.00391 13.59375,-9.84375 l -3.33984,-1.03516 c -1.34766,4.60937 -5.21485,7.57812 -10.25391,7.57812 -6.19141,0 -10.66406,-4.66796 -10.66406,-10.72265 0,-6.11328 4.49218,-10.72266 10.66406,-10.72266 5,0 8.86719,2.94922 10.23437,7.44141 z"
         style="font-style:normal;font-variant:normal;font-weight:normal;font-stretch:normal;font-family:'NEXT ART';-inkscape-font-specification:'NEXT ART';text-align:start;text-anchor:start;fill:#0a3652;fill-opacity:1"
         id="path920"
         inkscape:connector-curvature="0" />
      <path
         d="m 524.06055,171.20117 v 3.28125 h 9.76562 v 24.7461 h 3.4961 v -24.7461 h 9.78515 v -3.28125 z"
         style="font-style:normal;font-variant:normal;font-weight:normal;font-stretch:normal;font-family:'NEXT ART';-inkscape-font-specification:'NEXT ART';text-align:start;text-anchor:start;fill:#0a3652;fill-opacity:1"
         id="path922"
         inkscape:connector-curvature="0" />
      <path
         d="m 551.0332,171.20117 v 16.17188 c 0,2.03125 0.25391,3.39843 0.70313,4.64843 1.5039,4.25782 5.35156,7.20704 10.41015,7.20704 5.0586,0 8.90625,-2.94922 10.39063,-7.20704 0.46875,-1.25 0.74219,-2.61718 0.74219,-4.64843 v -16.17188 h -3.4961 v 16.17188 c 0,1.58203 -0.13672,2.53906 -0.42968,3.41797 -0.9961,3.02734 -3.65235,5.15625 -7.22657,5.15625 -3.51562,0 -6.17187,-2.12891 -7.16797,-5.15625 -0.29296,-0.87891 -0.44921,-1.83594 -0.44921,-3.41797 v -16.17188 z"
         style="font-style:normal;font-variant:normal;font-weight:normal;font-stretch:normal;font-family:'NEXT ART';-inkscape-font-specification:'NEXT ART';text-align:start;text-anchor:start;fill:#0a3652;fill-opacity:1"
         id="path924"
         inkscape:connector-curvature="0" />
      <path
         d="m 582.24414,199.22852 v -12.5586 h 7.16797 l 7.55859,12.5586 h 4.0625 l -7.8125,-12.69532 c 0.64453,-0.11718 1.21094,-0.27343 1.73828,-0.46875 1.34766,-0.50781 2.5,-1.36718 3.35938,-2.55859 0.91797,-1.26953 1.42578,-2.83203 1.42578,-4.55078 0,-3.16406 -1.69922,-5.72266 -4.29687,-6.91406 -1.05469,-0.52735 -2.26563,-0.82032 -4.21875,-0.82032 h -12.46094 v 28.00782 z m 0,-15.78125 v -8.94532 h 8.61328 c 1.36719,0 2.07031,0.13672 2.71485,0.41016 1.60156,0.68359 2.73437,2.14844 2.73437,4.0625 0,1.95312 -1.15234,3.39844 -2.73437,4.0625 -0.64454,0.27344 -1.34766,0.41016 -2.71485,0.41016 z"
         style="font-style:normal;font-variant:normal;font-weight:normal;font-stretch:normal;font-family:'NEXT ART';-inkscape-font-specification:'NEXT ART';text-align:start;text-anchor:start;fill:#0a3652;fill-opacity:1"
         id="path926"
         inkscape:connector-curvature="0" />
      <path
         d="m 625.13477,199.22852 h 3.67187 L 617.38086,171.2207 h -3.41797 l -11.46484,28.00782 h 3.6914 l 2.30469,-5.74219 h 14.31641 z m -9.45313,-23.69141 5.83984,14.70703 H 609.7832 Z"
         style="font-style:normal;font-variant:normal;font-weight:normal;font-stretch:normal;font-family:'NEXT ART';-inkscape-font-specification:'NEXT ART';text-align:start;text-anchor:start;fill:#0a3652;fill-opacity:1"
         id="path928"
         inkscape:connector-curvature="0" />
      <path
         d="m 631.9707,171.20117 v 28.02735 h 18.59375 v -3.28125 H 635.4668 v -24.7461 z"
         style="font-style:normal;font-variant:normal;font-weight:normal;font-stretch:normal;font-family:'NEXT ART';-inkscape-font-specification:'NEXT ART';text-align:start;text-anchor:start;fill:#0a3652;fill-opacity:1"
         id="path930"
         inkscape:connector-curvature="0" />
      <path
         d="m 668.51367,182.95898 v -8.57421 h 6.85547 c 1.32813,0 2.01172,0.11718 2.61719,0.39062 1.5625,0.66406 2.65625,2.03125 2.65625,3.88672 0,1.85547 -1.09375,3.26172 -2.65625,3.90625 -0.625,0.25391 -1.3086,0.39062 -2.59766,0.39062 z m 0,13.04688 v -9.94141 h 8.37891 c 1.46484,0 2.22656,0.13672 2.91015,0.41016 1.79688,0.74219 3.06641,2.40234 3.06641,4.55078 0,2.1875 -1.26953,3.82813 -3.06641,4.55078 -0.68359,0.27344 -1.44531,0.42969 -2.91015,0.42969 z m -3.49609,3.22266 h 12.38281 c 1.97266,0 3.16406,-0.27344 4.21875,-0.76172 2.83203,-1.23047 4.70703,-3.98438 4.70703,-7.34375 0,-3.30078 -1.97265,-5.97657 -4.90234,-7.12891 1.64062,-1.25 2.59765,-3.125 2.59765,-5.27344 0,-3.10547 -1.69921,-5.625 -4.3164,-6.79687 -0.9961,-0.44922 -2.12891,-0.70313 -3.98438,-0.70313 h -10.70312 z"
         style="font-style:normal;font-variant:normal;font-weight:normal;font-stretch:normal;font-family:'NEXT ART';-inkscape-font-specification:'NEXT ART';text-align:start;text-anchor:start;fill:#0a3652;fill-opacity:1"
         id="path932"
         inkscape:connector-curvature="0" />
      <path
         d="m 690.7207,199.22852 h 3.4961 v -28.02735 h -3.4961 z"
         style="font-style:normal;font-variant:normal;font-weight:normal;font-stretch:normal;font-family:'NEXT ART';-inkscape-font-specification:'NEXT ART';text-align:start;text-anchor:start;fill:#0a3652;fill-opacity:1"
         id="path934"
         inkscape:connector-curvature="0" />
      <path
         d="m 726.89258,185.20508 c 0,-7.91016 -6.07422,-14.00391 -14.19922,-14.00391 -8.10547,0 -14.19922,6.09375 -14.19922,14.00391 0,7.94922 6.09375,14.02344 14.19922,14.02344 8.125,0 14.19922,-6.07422 14.19922,-14.02344 z m -3.53516,0 c 0,6.11328 -4.45312,10.72265 -10.66406,10.72265 -6.21094,0 -10.66406,-4.60937 -10.66406,-10.72265 0,-6.09375 4.45312,-10.70313 10.66406,-10.70313 6.21094,0 10.66406,4.60938 10.66406,10.70313 z"
         style="font-style:normal;font-variant:normal;font-weight:normal;font-stretch:normal;font-family:'NEXT ART';-inkscape-font-specification:'NEXT ART';text-align:start;text-anchor:start;fill:#0a3652;fill-opacity:1"
         id="path936"
         inkscape:connector-curvature="0" />
      <path
         d="m 731.18945,199.22852 h 3.4961 v -28.02735 h -3.4961 z"
         style="font-style:normal;font-variant:normal;font-weight:normal;font-stretch:normal;font-family:'NEXT ART';-inkscape-font-specification:'NEXT ART';text-align:start;text-anchor:start;fill:#0a3652;fill-opacity:1"
         id="path938"
         inkscape:connector-curvature="0" />
      <path
         d="m 743.82617,199.22852 v -21.42579 l 18.47656,21.42579 h 1.83594 v -28.02735 h -3.47656 v 21.40625 l -18.47656,-21.40625 h -1.85547 v 28.02735 z"
         style="font-style:normal;font-variant:normal;font-weight:normal;font-stretch:normal;font-family:'NEXT ART';-inkscape-font-specification:'NEXT ART';text-align:start;text-anchor:start;fill:#0a3652;fill-opacity:1"
         id="path940"
         inkscape:connector-curvature="0" />
      <path
         d="m 769.7832,171.20117 v 28.02735 h 3.47657 v -13.75 h 11.85546 v -3.24219 h -11.85546 v -7.77344 h 15.05859 v -3.26172 z"
         style="font-style:normal;font-variant:normal;font-weight:normal;font-stretch:normal;font-family:'NEXT ART';-inkscape-font-specification:'NEXT ART';text-align:start;text-anchor:start;fill:#0a3652;fill-opacity:1"
         id="path942"
         inkscape:connector-curvature="0" />
      <path
         d="m 818.29883,185.20508 c 0,-7.91016 -6.07422,-14.00391 -14.19922,-14.00391 -8.10547,0 -14.19922,6.09375 -14.19922,14.00391 0,7.94922 6.09375,14.02344 14.19922,14.02344 8.125,0 14.19922,-6.07422 14.19922,-14.02344 z m -3.53516,0 c 0,6.11328 -4.45312,10.72265 -10.66406,10.72265 -6.21094,0 -10.66406,-4.60937 -10.66406,-10.72265 0,-6.09375 4.45312,-10.70313 10.66406,-10.70313 6.21094,0 10.66406,4.60938 10.66406,10.70313 z"
         style="font-style:normal;font-variant:normal;font-weight:normal;font-stretch:normal;font-family:'NEXT ART';-inkscape-font-specification:'NEXT ART';text-align:start;text-anchor:start;fill:#0a3652;fill-opacity:1"
         id="path944"
         inkscape:connector-curvature="0" />
      <path
         d="m 826.07227,199.22852 v -12.5586 h 7.16796 l 7.5586,12.5586 h 4.0625 l -7.8125,-12.69532 c 0.64453,-0.11718 1.21094,-0.27343 1.73828,-0.46875 1.34766,-0.50781 2.5,-1.36718 3.35937,-2.55859 0.91797,-1.26953 1.42579,-2.83203 1.42579,-4.55078 0,-3.16406 -1.69922,-5.72266 -4.29688,-6.91406 -1.05469,-0.52735 -2.26562,-0.82032 -4.21875,-0.82032 H 822.5957 v 28.00782 z m 0,-15.78125 v -8.94532 h 8.61328 c 1.36718,0 2.07031,0.13672 2.71484,0.41016 1.60156,0.68359 2.73438,2.14844 2.73438,4.0625 0,1.95312 -1.15235,3.39844 -2.73438,4.0625 -0.64453,0.27344 -1.34766,0.41016 -2.71484,0.41016 z"
         style="font-style:normal;font-variant:normal;font-weight:normal;font-stretch:normal;font-family:'NEXT ART';-inkscape-font-specification:'NEXT ART';text-align:start;text-anchor:start;fill:#0a3652;fill-opacity:1"
         id="path946"
         inkscape:connector-curvature="0" />
      <path
         d="m 848.76758,171.20117 v 28.02735 h 3.49609 v -21.09375 l 10.625,13.4375 10.66406,-13.4375 v 21.09375 h 3.47657 v -28.02735 h -1.83594 l -12.28516,15.3125 -12.28515,-15.3125 z"
         style="font-style:normal;font-variant:normal;font-weight:normal;font-stretch:normal;font-family:'NEXT ART';-inkscape-font-specification:'NEXT ART';text-align:start;text-anchor:start;fill:#0a3652;fill-opacity:1"
         id="path948"
         inkscape:connector-curvature="0" />
      <path
         d="m 902.86914,199.22852 h 3.67188 L 895.11523,171.2207 h -3.41796 l -11.46485,28.00782 h 3.69141 l 2.30469,-5.74219 h 14.3164 z m -9.45312,-23.69141 5.83984,14.70703 h -11.73828 z"
         style="font-style:normal;font-variant:normal;font-weight:normal;font-stretch:normal;font-family:'NEXT ART';-inkscape-font-specification:'NEXT ART';text-align:start;text-anchor:start;fill:#0a3652;fill-opacity:1"
         id="path950"
         inkscape:connector-curvature="0" />
      <path
         d="m 904.5293,171.20117 v 3.28125 h 9.76562 v 24.7461 h 3.4961 v -24.7461 h 9.78515 v -3.28125 z"
         style="font-style:normal;font-variant:normal;font-weight:normal;font-stretch:normal;font-family:'NEXT ART';-inkscape-font-specification:'NEXT ART';text-align:start;text-anchor:start;fill:#0a3652;fill-opacity:1"
         id="path952"
         inkscape:connector-curvature="0" />
      <path
         d="m 931.6582,199.22852 h 3.4961 v -28.02735 h -3.4961 z"
         style="font-style:normal;font-variant:normal;font-weight:normal;font-stretch:normal;font-family:'NEXT ART';-inkscape-font-specification:'NEXT ART';text-align:start;text-anchor:start;fill:#0a3652;fill-opacity:1"
         id="path954"
         inkscape:connector-curvature="0" />
      <path
         d="m 967.14648,180.84961 c -1.79687,-5.87891 -7.10937,-9.64844 -13.51562,-9.64844 -8.06641,0 -14.19922,6.09375 -14.19922,14.00391 0,8.00781 6.23047,14.02344 14.19922,14.02344 6.52344,0 11.875,-4.00391 13.59375,-9.84375 l -3.33984,-1.03516 c -1.34766,4.60937 -5.21485,7.57812 -10.25391,7.57812 -6.19141,0 -10.66406,-4.66796 -10.66406,-10.72265 0,-6.11328 4.49218,-10.72266 10.66406,-10.72266 5,0 8.86719,2.94922 10.23437,7.44141 z"
         style="font-style:normal;font-variant:normal;font-weight:normal;font-stretch:normal;font-family:'NEXT ART';-inkscape-font-specification:'NEXT ART';text-align:start;text-anchor:start;fill:#0a3652;fill-opacity:1"
         id="path956"
         inkscape:connector-curvature="0" />
      <path
         d="m 969.80273,194.05273 c 3.41797,3.55469 7.5586,5.17579 11.38672,5.17579 5.87891,0 10,-3.65235 10,-8.35938 0,-6.23047 -5.89843,-7.57812 -9.98047,-8.35937 -4.47265,-0.83985 -7.30468,-1.48438 -7.30468,-4.08204 0,-2.26562 2.24609,-3.98437 5.74218,-3.98437 2.85157,0 5.6836,1.21094 7.65625,3.22266 l 2.16797,-2.42188 c -2.7539,-2.67578 -6.38672,-4.04297 -9.76562,-4.04297 -5.78125,0.0195 -9.21875,3.28125 -9.21875,7.40235 0,4.80468 4.55078,6.07421 9.10156,7.01171 4.19922,0.87891 8.16406,1.67969 8.16406,5.19532 0,2.85156 -2.59765,5.13672 -6.58203,5.13672 -3.28125,-0.0195 -6.58203,-1.58204 -9.10156,-4.33594 z"
         style="font-style:normal;font-variant:normal;font-weight:normal;font-stretch:normal;font-family:'NEXT ART';-inkscape-font-specification:'NEXT ART';text-align:start;text-anchor:start;fill:#0a3652;fill-opacity:1"
         id="path958"
         inkscape:connector-curvature="0" />
      <path
         d="m 1009.5879,199.22852 v -12.5586 h 7.168 l 7.5586,12.5586 h 4.0625 l -7.8125,-12.69532 c 0.6445,-0.11718 1.2109,-0.27343 1.7382,-0.46875 1.3477,-0.50781 2.5,-1.36718 3.3594,-2.55859 0.918,-1.26953 1.4258,-2.83203 1.4258,-4.55078 0,-3.16406 -1.6992,-5.72266 -4.2969,-6.91406 -1.0547,-0.52735 -2.2656,-0.82032 -4.2187,-0.82032 h -12.461 v 28.00782 z m 0,-15.78125 v -8.94532 h 8.6133 c 1.3672,0 2.0703,0.13672 2.7148,0.41016 1.6016,0.68359 2.7344,2.14844 2.7344,4.0625 0,1.95312 -1.1524,3.39844 -2.7344,4.0625 -0.6445,0.27344 -1.3476,0.41016 -2.7148,0.41016 z"
         style="font-style:normal;font-variant:normal;font-weight:normal;font-stretch:normal;font-family:'NEXT ART';-inkscape-font-specification:'NEXT ART';text-align:start;text-anchor:start;fill:#0a3652;fill-opacity:1"
         id="path960"
         inkscape:connector-curvature="0" />
      <path
         d="m 1032.2832,171.20117 v 28.02735 h 18.5352 v -3.24219 h -15.0586 v -10.52735 h 11.8554 v -3.22265 h -11.8554 v -7.77344 h 15.0586 v -3.26172 z"
         style="font-style:normal;font-variant:normal;font-weight:normal;font-stretch:normal;font-family:'NEXT ART';-inkscape-font-specification:'NEXT ART';text-align:start;text-anchor:start;fill:#0a3652;fill-opacity:1"
         id="path962"
         inkscape:connector-curvature="0" />
      <path
         d="m 1053.709,194.05273 c 3.418,3.55469 7.5586,5.17579 11.3867,5.17579 5.8789,0 10,-3.65235 10,-8.35938 0,-6.23047 -5.8984,-7.57812 -9.9805,-8.35937 -4.4726,-0.83985 -7.3047,-1.48438 -7.3047,-4.08204 0,-2.26562 2.2461,-3.98437 5.7422,-3.98437 2.8516,0 5.6836,1.21094 7.6563,3.22266 l 2.168,-2.42188 c -2.754,-2.67578 -6.3868,-4.04297 -9.7657,-4.04297 -5.7812,0.0195 -9.2187,3.28125 -9.2187,7.40235 0,4.80468 4.5508,6.07421 9.1015,7.01171 4.1993,0.87891 8.1641,1.67969 8.1641,5.19532 0,2.85156 -2.5977,5.13672 -6.582,5.13672 -3.2813,-0.0195 -6.5821,-1.58204 -9.1016,-4.33594 z"
         style="font-style:normal;font-variant:normal;font-weight:normal;font-stretch:normal;font-family:'NEXT ART';-inkscape-font-specification:'NEXT ART';text-align:start;text-anchor:start;fill:#0a3652;fill-opacity:1"
         id="path964"
         inkscape:connector-curvature="0" />
      <path
         d="m 1079.3145,171.20117 v 28.02735 h 18.5351 v -3.24219 h -15.0586 v -10.52735 h 11.8555 v -3.22265 h -11.8555 v -7.77344 h 15.0586 v -3.26172 z"
         style="font-style:normal;font-variant:normal;font-weight:normal;font-stretch:normal;font-family:'NEXT ART';-inkscape-font-specification:'NEXT ART';text-align:start;text-anchor:start;fill:#0a3652;fill-opacity:1"
         id="path966"
         inkscape:connector-curvature="0" />
      <path
         d="m 1122.6348,199.22852 h 3.6718 l -11.4257,-28.00782 h -3.418 l -11.4649,28.00782 h 3.6915 l 2.3046,-5.74219 h 14.3164 z m -9.4532,-23.69141 5.8399,14.70703 h -11.7383 z"
         style="font-style:normal;font-variant:normal;font-weight:normal;font-stretch:normal;font-family:'NEXT ART';-inkscape-font-specification:'NEXT ART';text-align:start;text-anchor:start;fill:#0a3652;fill-opacity:1"
         id="path968"
         inkscape:connector-curvature="0" />
      <path
         d="m 1132.9473,199.22852 v -12.5586 h 7.1679 l 7.5586,12.5586 h 4.0625 l -7.8125,-12.69532 c 0.6446,-0.11718 1.211,-0.27343 1.7383,-0.46875 1.3477,-0.50781 2.5,-1.36718 3.3594,-2.55859 0.918,-1.26953 1.4258,-2.83203 1.4258,-4.55078 0,-3.16406 -1.6993,-5.72266 -4.2969,-6.91406 -1.0547,-0.52735 -2.2656,-0.82032 -4.2188,-0.82032 h -12.4609 v 28.00782 z m 0,-15.78125 v -8.94532 h 8.6132 c 1.3672,0 2.0704,0.13672 2.7149,0.41016 1.6016,0.68359 2.7344,2.14844 2.7344,4.0625 0,1.95312 -1.1524,3.39844 -2.7344,4.0625 -0.6445,0.27344 -1.3477,0.41016 -2.7149,0.41016 z"
         style="font-style:normal;font-variant:normal;font-weight:normal;font-stretch:normal;font-family:'NEXT ART';-inkscape-font-specification:'NEXT ART';text-align:start;text-anchor:start;fill:#0a3652;fill-opacity:1"
         id="path970"
         inkscape:connector-curvature="0" />
      <path
         d="m 1181.834,180.84961 c -1.7969,-5.87891 -7.1094,-9.64844 -13.5156,-9.64844 -8.0664,0 -14.1993,6.09375 -14.1993,14.00391 0,8.00781 6.2305,14.02344 14.1993,14.02344 6.5234,0 11.875,-4.00391 13.5937,-9.84375 l -3.3398,-1.03516 c -1.3477,4.60937 -5.2149,7.57812 -10.2539,7.57812 -6.1914,0 -10.6641,-4.66796 -10.6641,-10.72265 0,-6.11328 4.4922,-10.72266 10.6641,-10.72266 5,0 8.8671,2.94922 10.2343,7.44141 z"
         style="font-style:normal;font-variant:normal;font-weight:normal;font-stretch:normal;font-family:'NEXT ART';-inkscape-font-specification:'NEXT ART';text-align:start;text-anchor:start;fill:#0a3652;fill-opacity:1"
         id="path972"
         inkscape:connector-curvature="0" />
      <path
         d="m 1205.0176,171.20117 v 11.07422 h -15.4883 v -11.07422 h -3.4961 v 28.02735 h 3.4961 v -13.69141 h 15.4883 v 13.69141 h 3.4961 v -28.02735 z"
         style="font-style:normal;font-variant:normal;font-weight:normal;font-stretch:normal;font-family:'NEXT ART';-inkscape-font-specification:'NEXT ART';text-align:start;text-anchor:start;fill:#0a3652;fill-opacity:1"
         id="path974"
         inkscape:connector-curvature="0" />
      <path
         d="m 1214.1582,171.20117 v 28.02735 h 18.5352 v -3.24219 h -15.0586 v -10.52735 h 11.8554 v -3.22265 h -11.8554 v -7.77344 h 15.0586 v -3.26172 z"
         style="font-style:normal;font-variant:normal;font-weight:normal;font-stretch:normal;font-family:'NEXT ART';-inkscape-font-specification:'NEXT ART';text-align:start;text-anchor:start;fill:#0a3652;fill-opacity:1"
         id="path976"
         inkscape:connector-curvature="0" />
      <path
         d="m 1240.7598,199.22852 v -12.5586 h 7.1679 l 7.5586,12.5586 h 4.0625 l -7.8125,-12.69532 c 0.6446,-0.11718 1.211,-0.27343 1.7383,-0.46875 1.3477,-0.50781 2.5,-1.36718 3.3594,-2.55859 0.918,-1.26953 1.4258,-2.83203 1.4258,-4.55078 0,-3.16406 -1.6993,-5.72266 -4.2969,-6.91406 -1.0547,-0.52735 -2.2656,-0.82032 -4.2188,-0.82032 h -12.4609 v 28.00782 z m 0,-15.78125 v -8.94532 h 8.6132 c 1.3672,0 2.0704,0.13672 2.7149,0.41016 1.6016,0.68359 2.7344,2.14844 2.7344,4.0625 0,1.95312 -1.1524,3.39844 -2.7344,4.0625 -0.6445,0.27344 -1.3477,0.41016 -2.7149,0.41016 z"
         style="font-style:normal;font-variant:normal;font-weight:normal;font-stretch:normal;font-family:'NEXT ART';-inkscape-font-specification:'NEXT ART';text-align:start;text-anchor:start;fill:#0a3652;fill-opacity:1"
         id="path978"
         inkscape:connector-curvature="0" />
      <path
         d="m 1261.9121,194.05273 c 3.418,3.55469 7.5586,5.17579 11.3867,5.17579 5.8789,0 10,-3.65235 10,-8.35938 0,-6.23047 -5.8984,-7.57812 -9.9804,-8.35937 -4.4727,-0.83985 -7.3047,-1.48438 -7.3047,-4.08204 0,-2.26562 2.2461,-3.98437 5.7422,-3.98437 2.8515,0 5.6836,1.21094 7.6562,3.22266 l 2.168,-2.42188 c -2.7539,-2.67578 -6.3867,-4.04297 -9.7656,-4.04297 -5.7813,0.0195 -9.2188,3.28125 -9.2188,7.40235 0,4.80468 4.5508,6.07421 9.1016,7.01171 4.1992,0.87891 8.164,1.67969 8.164,5.19532 0,2.85156 -2.5976,5.13672 -6.582,5.13672 -3.2813,-0.0195 -6.582,-1.58204 -9.1016,-4.33594 z"
         style="font-style:normal;font-variant:normal;font-weight:normal;font-stretch:normal;font-family:'NEXT ART';-inkscape-font-specification:'NEXT ART';text-align:start;text-anchor:start;fill:#0a3652;fill-opacity:1"
         id="path980"
         inkscape:connector-curvature="0" />
    </g>
  </g>
</svg>
