<?xml version="1.0" encoding="UTF-8" standalone="no"?>
<!-- Created with Inkscape (http://www.inkscape.org/) -->

<svg
   xmlns:dc="http://purl.org/dc/elements/1.1/"
   xmlns:cc="http://creativecommons.org/ns#"
   xmlns:rdf="http://www.w3.org/1999/02/22-rdf-syntax-ns#"
   xmlns:svg="http://www.w3.org/2000/svg"
   xmlns="http://www.w3.org/2000/svg"
   xmlns:sodipodi="http://sodipodi.sourceforge.net/DTD/sodipodi-0.dtd"
   xmlns:inkscape="http://www.inkscape.org/namespaces/inkscape"
   width="84.65033mm"
   height="84.650322mm"
   viewBox="0 0 84.650332 84.650322"
   version="1.1"
   id="svg8"
   inkscape:version="0.92.5 (2060ec1f9f, 2020-04-08)"
   sodipodi:docname="logo_pt.svg"
   inkscape:export-filename="/home/manel/test/3D-BioInfo-PT logo/both.png"
   inkscape:export-xdpi="300.05792"
   inkscape:export-ydpi="300.05792">
  <defs
     id="defs2" />
  <sodipodi:namedview
     id="base"
     pagecolor="#ffffff"
     bordercolor="#666666"
     borderopacity="1.0"
     inkscape:pageopacity="0.0"
     inkscape:pageshadow="2"
     inkscape:zoom="0.70710678"
     inkscape:cx="-192.96495"
     inkscape:cy="50.061252"
     inkscape:document-units="mm"
     inkscape:current-layer="layer1"
     showgrid="false"
     showguides="true"
     inkscape:guide-bbox="true"
     inkscape:snap-smooth-nodes="false"
     inkscape:snap-midpoints="true"
     inkscape:object-paths="true"
     inkscape:object-nodes="true"
     inkscape:window-width="1920"
     inkscape:window-height="1016"
     inkscape:window-x="0"
     inkscape:window-y="27"
     inkscape:window-maximized="1"
     inkscape:snap-global="true"
     inkscape:snap-bbox="true"
     inkscape:bbox-paths="true"
     inkscape:bbox-nodes="true"
     fit-margin-top="0"
     fit-margin-left="0"
     fit-margin-right="0"
     fit-margin-bottom="0"
     inkscape:snap-page="true" />
  <metadata
     id="metadata5">
    <rdf:RDF>
      <cc:Work
         rdf:about="">
        <dc:format>image/svg+xml</dc:format>
        <dc:type
           rdf:resource="http://purl.org/dc/dcmitype/StillImage" />
        <dc:title></dc:title>
      </cc:Work>
    </rdf:RDF>
  </metadata>
  <g
     inkscape:label="Layer 1"
     inkscape:groupmode="layer"
     id="layer1"
     transform="translate(-108.72391,-199.64151)">
    <g
       id="g864"
       inkscape:export-xdpi="300.05792"
       inkscape:export-ydpi="300.05792">
      <rect
         y="199.64151"
         x="108.72391"
         height="84.650322"
         width="84.650322"
         id="rect847"
         style="opacity:1;vector-effect:none;fill:#ffffff;fill-opacity:1;fill-rule:nonzero;stroke:none;stroke-width:0.065;stroke-linecap:round;stroke-linejoin:round;stroke-miterlimit:4;stroke-dasharray:none;stroke-dashoffset:0.69999999;stroke-opacity:1;paint-order:normal" />
      <g
         inkscape:export-ydpi="300.05792"
         inkscape:export-xdpi="300.05792"
         transform="translate(0,-6.72503)"
         id="g1752">
        <path
           style="fill:#ee8136;stroke-width:1"
           d="m 153.60574,254.26887 h 4.4826 v -23.28333 h 1.58751 v 23.28333 h 4.4826 l -5.27637,8.72473 z"
           id="path1026"
           inkscape:connector-curvature="0" />
        <path
           style="fill:#ee8136;stroke-width:1"
           d="m 149.67562,242.46087 c -0.11213,-0.81737 -2.37251,-1.22879 -12.21181,-2.22274 -8.16461,-0.82477 -11.64631,-1.35341 -13.20617,-2.00516 -1.42575,-0.44059 -1.18366,-1.22556 -1.14476,-1.82344 l 0.84954,-1.25548 c 1.0083,-1.52225 3.47592,-4.09457 3.84314,-3.79262 0.3203,0.26337 5.34731,1.02225 11.64263,1.61011 5.2726,0.49236 9.08368,1.05954 10.03648,1.49367 0.63365,0.28871 0.67739,0.42624 0.65289,2.05291 -0.0272,1.80578 -0.38971,6.46934 -0.46194,5.94275 z"
           id="path1018"
           inkscape:connector-curvature="0"
           sodipodi:nodetypes="cscccssccc" />
        <path
           style="fill:#0a3652;stroke-width:1"
           d="m 158.36008,266.2106 v -2.73828 l 0.522,0.86317 0.52201,-0.86317 v 2.73828 c 0,4.96738 3.59068,6.85804 6.63181,6.85804 3.04113,0 6.63181,-1.89066 6.63181,-6.85804 v -2.14864 h 1.04401 v 2.14864 c 0,4.96738 -3.07022,7.90205 -7.67582,7.90205 -4.6056,0 -7.67582,-2.93467 -7.67582,-7.90205 z"
           id="path1003"
           inkscape:connector-curvature="0"
           sodipodi:nodetypes="ccccczcccszc" />
        <path
           style="fill:#0a3652;stroke-width:1"
           d="m 130.88329,266.28852 4.15016,-1.21552 c 4.01413,-1.17568 4.2152,-1.20753 6.13453,-0.97174 2.66322,0.32716 5.28435,0.94991 6.01602,1.42931 1.51138,0.9903 0.0342,2.31659 -4.69858,4.21866 -2.50681,1.00747 -12.00526,3.83426 -12.00526,3.83426 z"
           id="path1001"
           inkscape:connector-curvature="0"
           sodipodi:nodetypes="csccscc" />
        <path
           style="fill:#0a3652;stroke-width:1"
           d="m 144.30855,257.05671 c -0.0559,-0.0559 -3.09977,-0.40904 -6.76417,-0.78475 -6.94072,-0.71163 -8.61625,-1.05052 -8.75493,-1.77074 -0.0936,-0.48605 1.01731,-0.99991 3.87188,-1.79095 1.74625,-0.48391 1.87361,-0.48422 4.95106,-0.0118 7.67185,1.17777 10.43554,2.21412 9.02539,3.38444 -0.45467,0.37735 -2.19717,1.10583 -2.32923,0.97377 z"
           id="path999"
           inkscape:connector-curvature="0" />
        <path
           style="fill:#0a3652;stroke-width:1"
           d="m 134.4211,244.72142 c -9.26444,-1.49332 -10.94037,-2.57783 -6.25289,-4.04632 3.22577,-1.01057 3.41221,-1.01909 9.47373,-0.43332 9.07351,0.87685 12.03368,1.36423 12.03368,2.21909 0,0.71924 -2.10425,1.47838 -7.41176,2.53249 -1.50731,0.29936 -2.81699,0.53337 -2.91041,0.52001 -0.0934,-0.0134 -2.31297,-0.36974 -4.93235,-0.79195 z"
           id="path997"
           inkscape:connector-curvature="0"
           sodipodi:nodetypes="ccssccc" />
        <path
           style="fill:#0a3652;stroke-width:1"
           d="m 123.27552,233.7637 c 0.0894,-1.45521 0.16326,-3.02673 0.16401,-3.49227 10e-4,-0.65224 0.20953,-1.0052 0.90868,-1.53847 1.87506,-1.43018 9.18961,-3.5696 20.39165,-5.96432 6.36448,-1.36057 9.49893,-1.52076 11.55733,-0.59066 2.35149,1.06254 3.07639,2.4539 3.1069,5.96332 0.009,1.07272 -1e-5,1.9236 -1e-5,2.24896 h -1.04401 c 0,-0.47889 0.003,-1.11443 1e-5,-2.11667 -0.007,-2.63729 -0.59356,-4.18084 -1.83207,-4.8213 -2.3597,-1.22025 -5.69641,-1.07348 -11.80274,0.51914 -9.91313,2.58549 -17.8311,6.85002 -20.76285,11.18262 l -0.84954,1.25548 z"
           id="path995"
           inkscape:connector-curvature="0"
           sodipodi:nodetypes="cccscccccssscc" />
        <path
           id="path1036"
           d="m 178.46606,240.24595 h -4.4826 v 23.28333 h -1.58751 v -23.28333 h -4.4826 l 5.27637,-8.72473 z"
           style="fill:#ee8136;stroke-width:1"
           inkscape:connector-curvature="0" />
        <path
           sodipodi:nodetypes="cccccc"
           inkscape:connector-curvature="0"
           id="path1052"
           d="m 173.71172,231.11787 -0.522,-0.86317 -0.52201,0.86317 c -0.0451,-0.77322 0,-6.43236 0,-6.43236 h 1.04401 z"
           style="fill:#0a3652;stroke-width:1" />
        <path
           style="fill:#ee8136;stroke-width:1"
           d="m 145.76028,254.49107 c -1.59733,-0.62475 -3.80343,-1.11844 -10.01626,-2.08245 -6.4854,-1.00631 -8.91099,-1.53242 -9.93432,-2.15474 -0.78306,-0.47621 -0.82013,-0.57142 -0.68136,-1.75004 0.0807,-0.68553 0.22252,-2.34249 0.31515,-3.68212 0.0834,-1.20645 0.19371,-2.70778 0.19371,-2.70778 0.47742,0.60765 1.34412,1.00334 2.59188,1.38765 5.29774,1.06832 10.29284,1.74068 15.05557,2.69407 1.23693,0.24646 2.66568,0.64892 3.175,0.89434 1.0445,0.3306 0.87296,2.32229 0.83314,3.72969 -0.0604,2.1357 -0.30783,4.76614 -0.30783,4.76614 0,0 0.0545,-0.61856 -1.22469,-1.09438 z"
           id="path1024"
           inkscape:connector-curvature="0"
           sodipodi:nodetypes="cccsscccccccc" />
        <path
           style="fill:#ee8136;stroke-width:1"
           d="m 139.63386,263.94413 c -4.08484,-0.31848 -9.27459,-1.10977 -10.3226,-1.29225 -1.04801,-0.18248 -0.91197,-2.4138 -0.80609,-4.02122 0.10588,-1.60742 0.27901,-4.19522 0.27901,-4.19522 0,0 0.10102,0.49688 0.96075,0.74117 0.85972,0.24429 4.03553,0.70908 7.64194,1.07967 7.49236,0.76992 7.52918,0.77527 9.071,1.31926 1.93911,0.68416 1.91764,0.63109 1.70622,4.21704 -0.11599,1.96736 -0.41142,4.52636 -0.41142,4.52636 0,0 -0.009,-0.43341 -0.59617,-0.8059 -0.58697,-0.37249 -2.73092,-1.06343 -7.52264,-1.56891 z"
           id="path1030"
           inkscape:connector-curvature="0"
           sodipodi:nodetypes="czzczccsczc" />
        <path
           style="opacity:1;vector-effect:none;fill:#046a38;fill-opacity:1;fill-rule:nonzero;stroke:none;stroke-width:0.065;stroke-linecap:round;stroke-linejoin:round;stroke-miterlimit:4;stroke-dasharray:none;stroke-dashoffset:0.69999999;stroke-opacity:1;paint-order:normal"
           d="m 149.55263,206.42512 c -22.6821,0.78864 -40.82852,19.42126 -40.82852,42.29561 0,22.87435 18.14642,41.5075 40.82852,42.29613 v -7.01198 c -18.81108,-0.7845 -33.82171,-16.2802 -33.82171,-35.28415 0,-19.00395 15.01062,-34.49965 33.82171,-35.28415 z"
           id="path1095"
           inkscape:connector-curvature="0" />
        <path
           style="opacity:1;vector-effect:none;fill:#da291c;fill-opacity:1;fill-rule:nonzero;stroke:none;stroke-width:0.065;stroke-linecap:round;stroke-linejoin:round;stroke-miterlimit:4;stroke-dasharray:none;stroke-dashoffset:0.69999999;stroke-opacity:1;paint-order:normal"
           d="m 152.54573,206.42512 v 7.01146 c 18.81108,0.7845 33.82119,16.2802 33.82119,35.28415 0,19.00395 -15.01011,34.49965 -33.82119,35.28415 v 7.01198 c 22.68209,-0.78863 40.82851,-19.42178 40.82851,-42.29613 0,-22.87435 -18.14642,-41.50697 -40.82851,-42.29561 z"
           id="path1084"
           inkscape:connector-curvature="0" />
      </g>
    </g>
  </g>
</svg>
