<?xml version="1.0" encoding="UTF-8" standalone="no"?>
<!DOCTYPE svg PUBLIC "-//W3C//DTD SVG 1.1//EN" "http://www.w3.org/Graphics/SVG/1.1/DTD/svg11.dtd">
<svg width="100%" height="100%" viewBox="0 0 859 470" version="1.1" xmlns="http://www.w3.org/2000/svg" xmlns:xlink="http://www.w3.org/1999/xlink" xml:space="preserve" xmlns:serif="http://www.serif.com/" style="fill-rule:evenodd;clip-rule:evenodd;stroke-linecap:round;stroke-linejoin:round;">
    <g id="Background-wires" serif:id="Background wires" transform="matrix(1,0,0,1,-45.4584,-197.467)">
        <rect id="rect937" x="45.58" y="196.732" width="858.147" height="469.726" style="fill:white;"/>
        <g id="path885-6" transform="matrix(1,0,0,1,45.4584,197.467)">
            <path d="M50.97,87.387L120.613,87.387L180.103,121.733L224.405,121.733L286.749,85.739L308.917,85.739" style="fill:none;fill-rule:nonzero;stroke:rgb(207,207,207);stroke-width:1.42px;"/>
        </g>
        <g id="path887-8" transform="matrix(1,0,0,1,45.4584,197.467)">
            <path d="M193.986,135.233L176.486,135.233L155.082,122.876L109.761,122.876L92.169,133.032" style="fill:none;fill-rule:nonzero;stroke:rgb(207,207,207);stroke-width:1.42px;"/>
        </g>
        <g id="path950-8" transform="matrix(1,0,0,1,45.4584,197.467)">
            <path d="M182.488,453.366L198.443,444.154L198.443,284.669L193.624,279.849M263.584,173.886L206.105,207.072L206.105,268.399L202.443,270.513" style="fill:none;fill-rule:nonzero;stroke:rgb(207,207,207);stroke-width:1.42px;"/>
        </g>
        <g id="path1504-4" transform="matrix(1,0,0,1,45.4584,197.467)">
            <path d="M263.584,141.312L238.642,155.712L227.974,155.712M215.886,148.733L172.868,148.733L151.464,136.376L113.378,136.375L79.94,155.681L62.354,155.681" style="fill:none;fill-rule:nonzero;stroke:rgb(207,207,207);stroke-width:1.42px;"/>
        </g>
        <g id="path1507-3" transform="matrix(1,0,0,1,45.4584,197.467)">
            <path d="M195.988,461.16L211.943,451.948L211.943,380.535L234.117,367.733L234.117,319.646L248.045,295.521L248.045,209.552L369.806,139.253L396.231,139.253" style="fill:none;fill-rule:nonzero;stroke:rgb(207,207,207);stroke-width:1.42px;"/>
        </g>
        <g id="path1509-1" transform="matrix(1,0,0,1,45.4584,197.467)">
            <path d="M225.443,459.743L225.443,388.329L247.617,375.527L263.584,375.527" style="fill:none;fill-rule:nonzero;stroke:rgb(207,207,207);stroke-width:1.42px;"/>
        </g>
        <g id="path1511-4" transform="matrix(1,0,0,1,45.4584,197.467)">
            <path d="M263.584,397.44L263.584,445.927L289.665,460.985L384.867,460.985" style="fill:none;fill-rule:nonzero;stroke:rgb(207,207,207);stroke-width:1.42px;"/>
        </g>
        <g id="path911-9" transform="matrix(1,0,0,1,45.4584,197.467)">
            <path d="M127.895,337.929L127.895,358.071L117.345,364.163L117.345,394.5L100.66,404.133L100.66,446.413L124.507,460.18M86.809,203.25L86.809,235.393L95.789,240.577L95.789,258.964L107.898,265.955L181.202,265.955L189.097,270.513" style="fill:none;fill-rule:nonzero;stroke:rgb(207,207,207);stroke-width:1.42px;"/>
        </g>
        <g id="path932-2" transform="matrix(1,0,0,1,45.4584,197.467)">
            <path d="M71.809,244.053L80.789,249.238L80.789,267.624L112.895,286.161L112.895,349.411L102.345,355.502L102.345,385.84L85.66,395.472" style="fill:none;fill-rule:nonzero;stroke:rgb(207,207,207);stroke-width:1.42px;"/>
        </g>
        <g id="path934-0" transform="matrix(1,0,0,1,45.4584,197.467)">
            <path d="M56.809,203.25L56.809,252.713L65.789,257.898L65.789,276.285M97.895,294.821L97.895,340.751L87.345,346.842M87.345,377.179L70.66,386.812L70.66,465.75" style="fill:none;fill-rule:nonzero;stroke:rgb(207,207,207);stroke-width:1.42px;"/>
        </g>
        <g id="path936-6" transform="matrix(1,0,0,1,45.4584,197.467)">
            <path d="M23.485,430.574L44.497,430.574L55.66,419.411L55.66,378.152L72.345,368.519L72.345,338.182L82.895,332.09L82.895,303.481L50.789,284.945L50.789,266.558L41.809,261.373L41.809,245.16L28.987,237.757L3.976,237.757" style="fill:none;fill-rule:nonzero;stroke:rgb(207,207,207);stroke-width:1.42px;"/>
        </g>
        <g id="path1529-8" transform="matrix(1,0,0,1,45.4584,197.467)">
            <path d="M445.256,187.386L393.827,187.386L380.214,195.246L380.214,217.761L351.477,234.353" style="fill:none;fill-rule:nonzero;stroke:rgb(207,207,207);stroke-width:1.42px;"/>
        </g>
        <g id="path1536-9" transform="matrix(1,0,0,1,45.4584,197.467)">
            <path d="M372.238,235.724L386.863,235.724L434.492,263.222L434.492,279.408L400.318,299.138L334.346,299.138L291.232,310.767L254.831,310.767L247.617,323.263" style="fill:none;fill-rule:nonzero;stroke:rgb(207,207,207);stroke-width:1.42px;"/>
        </g>
        <g id="path1543-2" transform="matrix(1,0,0,1,45.4584,197.467)">
            <path d="M226.042,243.708L226.042,213.172" style="fill:none;fill-rule:nonzero;stroke:rgb(207,207,207);stroke-width:1.42px;"/>
        </g>
        <g id="path1545-6" transform="matrix(1,0,0,1,45.4584,197.467)">
            <path d="M406.35,263.16L383.107,249.741L339.185,249.741" style="fill:none;fill-rule:nonzero;stroke:rgb(207,207,207);stroke-width:1.42px;"/>
        </g>
        <g id="path1555-6" transform="matrix(1,0,0,1,45.4584,197.467)">
            <path d="M362.622,284.155L397.31,284.155" style="fill:none;fill-rule:nonzero;stroke:rgb(207,207,207);stroke-width:1.42px;"/>
        </g>
        <g id="path1573-4" transform="matrix(1,0,0,1,45.4584,197.467)">
            <path d="M127.933,109.376L75.717,109.376" style="fill:none;fill-rule:nonzero;stroke:rgb(207,207,207);stroke-width:1.42px;"/>
        </g>
        <g id="path1592-9" transform="matrix(1,0,0,1,45.4584,197.467)">
            <path d="M114.433,57.811L114.433,25.044L139.62,10.502L164.807,25.044" style="fill:none;fill-rule:nonzero;stroke:rgb(207,207,207);stroke-width:1.42px;"/>
        </g>
        <g id="path1600-5" transform="matrix(1,0,0,1,45.4584,197.467)">
            <path d="M164.807,7.044L185.403,18.935L215.647,1.473L249.437,20.982L299.006,20.982" style="fill:none;fill-rule:nonzero;stroke:rgb(207,207,207);stroke-width:1.42px;"/>
        </g>
        <g id="path1610-0" transform="matrix(1,0,0,1,45.4584,197.467)">
            <path d="M65.97,73.887L124.23,73.887L167.168,98.676L198.358,98.676L258.62,63.884L262.937,63.884" style="fill:none;fill-rule:nonzero;stroke:rgb(207,207,207);stroke-width:1.42px;"/>
        </g>
        <g id="path1615-4" transform="matrix(1,0,0,1,45.4584,197.467)">
            <path d="M262.937,34.482L306.8,34.482L318.738,27.589L318.738,3.976" style="fill:none;fill-rule:nonzero;stroke:rgb(207,207,207);stroke-width:1.42px;"/>
        </g>
        <g id="path1617-8" transform="matrix(1,0,0,1,45.4584,197.467)">
            <path d="M262.937,47.982L334.899,47.982" style="fill:none;fill-rule:nonzero;stroke:rgb(207,207,207);stroke-width:1.42px;"/>
        </g>
        <g id="path1519-7" transform="matrix(1,0,0,1,45.4584,197.467)">
            <path d="M435.059,160.386L364.411,160.386L341.028,173.886" style="fill:none;fill-rule:nonzero;stroke:rgb(207,207,207);stroke-width:1.42px;"/>
        </g>
        <g id="path1579-1" transform="matrix(1,0,0,1,45.4584,197.467)">
            <path d="M431.942,125.753L376.715,125.753L363.215,117.959L363.215,43.619" style="fill:none;fill-rule:nonzero;stroke:rgb(207,207,207);stroke-width:1.42px;"/>
        </g>
        <g id="circle1619-72" transform="matrix(1,0,0,1,45.4584,197.467)">
            <circle cx="445.256" cy="187.386" r="2.7" style="fill:white;stroke:rgb(207,207,207);stroke-width:1.42px;"/>
        </g>
        <g id="circle1619-3-7" transform="matrix(1,0,0,1,45.4584,197.467)">
            <circle cx="351.477" cy="234.353" r="2.7" style="fill:white;stroke:rgb(207,207,207);stroke-width:1.42px;"/>
        </g>
        <g id="circle1619-6-2" transform="matrix(1,0,0,1,45.4584,197.467)">
            <circle cx="372.238" cy="235.724" r="2.7" style="fill:white;stroke:rgb(207,207,207);stroke-width:1.42px;"/>
        </g>
        <g id="circle1619-7-2" transform="matrix(1,0,0,1,45.4584,197.467)">
            <circle cx="406.35" cy="263.16" r="2.7" style="fill:white;stroke:rgb(207,207,207);stroke-width:1.42px;"/>
        </g>
        <g id="circle1619-5-6" transform="matrix(1,0,0,1,45.4584,197.467)">
            <circle cx="397.309" cy="284.155" r="2.7" style="fill:white;stroke:rgb(207,207,207);stroke-width:1.42px;"/>
        </g>
        <g id="circle1619-9-06" transform="matrix(1,0,0,1,45.4584,197.467)">
            <circle cx="435.059" cy="160.386" r="2.7" style="fill:white;stroke:rgb(207,207,207);stroke-width:1.42px;"/>
        </g>
        <g id="circle1619-9-1-1" transform="matrix(1,0,0,1,45.4584,197.467)">
            <circle cx="396.231" cy="139.253" r="2.7" style="fill:white;stroke:rgb(207,207,207);stroke-width:1.42px;"/>
        </g>
        <g id="circle1619-9-2-5" transform="matrix(1,0,0,1,45.4584,197.467)">
            <circle cx="431.942" cy="125.753" r="2.7" style="fill:white;stroke:rgb(207,207,207);stroke-width:1.42px;"/>
        </g>
        <g id="circle1619-9-7-9" transform="matrix(1,0,0,1,45.4584,197.467)">
            <circle cx="363.215" cy="43.619" r="2.7" style="fill:white;stroke:rgb(207,207,207);stroke-width:1.42px;"/>
        </g>
        <g id="circle1619-9-3-4" transform="matrix(1,0,0,1,45.4584,197.467)">
            <circle cx="334.899" cy="47.982" r="2.7" style="fill:white;stroke:rgb(207,207,207);stroke-width:1.42px;"/>
        </g>
        <g id="circle1619-9-6-9" transform="matrix(1,0,0,1,45.4584,197.467)">
            <circle cx="262.937" cy="47.982" r="2.7" style="fill:white;stroke:rgb(207,207,207);stroke-width:1.42px;"/>
        </g>
        <g id="circle1619-9-62-0" transform="matrix(1,0,0,1,45.4584,197.467)">
            <circle cx="262.937" cy="63.884" r="2.7" style="fill:white;stroke:rgb(207,207,207);stroke-width:1.42px;"/>
        </g>
        <g id="circle1619-9-61-9" transform="matrix(1,0,0,1,45.4584,197.467)">
            <circle cx="262.937" cy="34.482" r="2.7" style="fill:white;stroke:rgb(207,207,207);stroke-width:1.42px;"/>
        </g>
        <g id="circle1619-9-8-1" transform="matrix(1,0,0,1,45.4584,197.467)">
            <circle cx="318.738" cy="3.976" r="2.7" style="fill:white;stroke:rgb(207,207,207);stroke-width:1.42px;"/>
        </g>
        <g id="circle1619-9-79-7" transform="matrix(1,0,0,1,45.4584,197.467)">
            <circle cx="299.006" cy="20.982" r="2.7" style="fill:white;stroke:rgb(207,207,207);stroke-width:1.42px;"/>
        </g>
        <g id="circle1619-9-20-7" transform="matrix(1,0,0,1,45.4584,197.467)">
            <circle cx="164.807" cy="7.044" r="2.7" style="fill:white;stroke:rgb(207,207,207);stroke-width:1.42px;"/>
        </g>
        <g id="circle1619-9-23-1" transform="matrix(1,0,0,1,45.4584,197.467)">
            <circle cx="164.807" cy="25.044" r="2.7" style="fill:white;stroke:rgb(207,207,207);stroke-width:1.42px;"/>
        </g>
        <g id="circle1619-9-75-1" transform="matrix(1,0,0,1,45.4584,197.467)">
            <circle cx="114.433" cy="57.811" r="2.7" style="fill:white;stroke:rgb(207,207,207);stroke-width:1.42px;"/>
        </g>
        <g id="circle1619-9-9-5" transform="matrix(1,0,0,1,45.4584,197.467)">
            <circle cx="189.097" cy="270.513" r="2.7" style="fill:white;stroke:rgb(207,207,207);stroke-width:1.42px;"/>
        </g>
        <g id="circle1619-9-22-9" transform="matrix(1,0,0,1,45.4584,197.467)">
            <circle cx="202.443" cy="270.513" r="2.7" style="fill:white;stroke:rgb(207,207,207);stroke-width:1.42px;"/>
        </g>
        <g id="circle1619-9-89-7" transform="matrix(1,0,0,1,45.4584,197.467)">
            <circle cx="193.624" cy="279.849" r="2.7" style="fill:white;stroke:rgb(207,207,207);stroke-width:1.42px;"/>
        </g>
        <g id="circle1619-9-73-7" transform="matrix(1,0,0,1,45.4584,197.467)">
            <circle cx="226.042" cy="213.172" r="2.7" style="fill:white;stroke:rgb(207,207,207);stroke-width:1.42px;"/>
        </g>
        <g id="circle1619-9-612-6" transform="matrix(1,0,0,1,45.4584,197.467)">
            <circle cx="247.617" cy="323.263" r="2.7" style="fill:white;stroke:rgb(207,207,207);stroke-width:1.42px;"/>
        </g>
        <g id="circle1619-9-93-7" transform="matrix(1,0,0,1,45.4584,197.467)">
            <circle cx="263.584" cy="375.527" r="2.7" style="fill:white;stroke:rgb(207,207,207);stroke-width:1.42px;"/>
        </g>
        <g id="circle1619-9-19-3" transform="matrix(1,0,0,1,45.4584,197.467)">
            <circle cx="263.584" cy="397.44" r="2.7" style="fill:white;stroke:rgb(207,207,207);stroke-width:1.42px;"/>
        </g>
        <g id="circle1619-9-4-6" transform="matrix(1,0,0,1,45.4584,197.467)">
            <circle cx="225.443" cy="459.743" r="2.7" style="fill:white;stroke:rgb(207,207,207);stroke-width:1.42px;"/>
        </g>
        <g id="circle1619-9-78-5" transform="matrix(1,0,0,1,45.4584,197.467)">
            <circle cx="195.988" cy="461.16" r="2.7" style="fill:white;stroke:rgb(207,207,207);stroke-width:1.42px;"/>
        </g>
        <g id="circle1619-9-45-6" transform="matrix(1,0,0,1,45.4584,197.467)">
            <circle cx="182.488" cy="453.366" r="2.7" style="fill:white;stroke:rgb(207,207,207);stroke-width:1.42px;"/>
        </g>
        <g id="circle1619-9-0-3" transform="matrix(1,0,0,1,45.4584,197.467)">
            <circle cx="124.507" cy="460.18" r="2.7" style="fill:white;stroke:rgb(207,207,207);stroke-width:1.42px;"/>
        </g>
        <g id="circle1619-9-36-9" transform="matrix(1,0,0,1,45.4584,197.467)">
            <circle cx="384.867" cy="460.985" r="2.7" style="fill:white;stroke:rgb(207,207,207);stroke-width:1.42px;"/>
        </g>
        <g id="circle1619-9-10-4" transform="matrix(1,0,0,1,45.4584,197.467)">
            <circle cx="70.66" cy="465.75" r="2.7" style="fill:white;stroke:rgb(207,207,207);stroke-width:1.42px;"/>
        </g>
        <g id="circle1619-9-63-8" transform="matrix(1,0,0,1,45.4584,197.467)">
            <circle cx="87.345" cy="377.179" r="2.7" style="fill:white;stroke:rgb(207,207,207);stroke-width:1.42px;"/>
        </g>
        <g id="circle1619-9-206-1" transform="matrix(1,0,0,1,45.4584,197.467)">
            <circle cx="85.66" cy="395.472" r="2.7" style="fill:white;stroke:rgb(207,207,207);stroke-width:1.42px;"/>
        </g>
        <g id="circle1619-9-15-2" transform="matrix(1,0,0,1,45.4584,197.467)">
            <circle cx="23.485" cy="430.574" r="2.7" style="fill:white;stroke:rgb(207,207,207);stroke-width:1.42px;"/>
        </g>
        <g id="circle1619-9-5-9" transform="matrix(1,0,0,1,45.4584,197.467)">
            <circle cx="87.345" cy="346.842" r="2.7" style="fill:white;stroke:rgb(207,207,207);stroke-width:1.42px;"/>
        </g>
        <g id="circle1619-9-47-3" transform="matrix(1,0,0,1,45.4584,197.467)">
            <circle cx="127.895" cy="337.929" r="2.7" style="fill:white;stroke:rgb(207,207,207);stroke-width:1.42px;"/>
        </g>
        <g id="circle1619-9-65-9" transform="matrix(1,0,0,1,45.4584,197.467)">
            <circle cx="97.895" cy="294.821" r="2.7" style="fill:white;stroke:rgb(207,207,207);stroke-width:1.42px;"/>
        </g>
        <g id="circle1619-9-69-0" transform="matrix(1,0,0,1,45.4584,197.467)">
            <circle cx="65.789" cy="276.285" r="2.7" style="fill:white;stroke:rgb(207,207,207);stroke-width:1.42px;"/>
        </g>
        <g id="circle1619-9-37-8" transform="matrix(1,0,0,1,45.4584,197.467)">
            <circle cx="3.976" cy="237.757" r="2.7" style="fill:white;stroke:rgb(207,207,207);stroke-width:1.42px;"/>
        </g>
        <g id="circle1619-9-452-8" transform="matrix(1,0,0,1,45.4584,197.467)">
            <circle cx="56.809" cy="203.25" r="2.7" style="fill:white;stroke:rgb(207,207,207);stroke-width:1.42px;"/>
        </g>
        <g id="circle1619-9-54-5" transform="matrix(1,0,0,1,45.4584,197.467)">
            <circle cx="71.809" cy="244.053" r="2.7" style="fill:white;stroke:rgb(207,207,207);stroke-width:1.42px;"/>
        </g>
        <g id="circle1619-9-74-0" transform="matrix(1,0,0,1,45.4584,197.467)">
            <circle cx="86.809" cy="203.25" r="2.7" style="fill:white;stroke:rgb(207,207,207);stroke-width:1.42px;"/>
        </g>
        <g id="circle1619-9-43-9" transform="matrix(1,0,0,1,45.4584,197.467)">
            <circle cx="227.974" cy="155.712" r="2.7" style="fill:white;stroke:rgb(207,207,207);stroke-width:1.42px;"/>
        </g>
        <g id="circle1619-9-07-6" transform="matrix(1,0,0,1,45.4584,197.467)">
            <circle cx="215.886" cy="148.733" r="2.7" style="fill:white;stroke:rgb(207,207,207);stroke-width:1.42px;"/>
        </g>
        <g id="circle1619-9-86-3" transform="matrix(1,0,0,1,45.4584,197.467)">
            <circle cx="193.986" cy="135.233" r="2.7" style="fill:white;stroke:rgb(207,207,207);stroke-width:1.42px;"/>
        </g>
        <g id="circle1619-9-88-8" transform="matrix(1,0,0,1,45.4584,197.467)">
            <circle cx="92.169" cy="133.032" r="2.7" style="fill:white;stroke:rgb(207,207,207);stroke-width:1.42px;"/>
        </g>
        <g id="circle1619-9-431-5" transform="matrix(1,0,0,1,45.4584,197.467)">
            <circle cx="62.354" cy="155.681" r="2.7" style="fill:white;stroke:rgb(207,207,207);stroke-width:1.42px;"/>
        </g>
        <g id="circle1619-9-49-6" transform="matrix(1,0,0,1,45.4584,197.467)">
            <circle cx="75.717" cy="109.376" r="2.7" style="fill:white;stroke:rgb(207,207,207);stroke-width:1.42px;"/>
        </g>
        <g id="circle1619-9-2068-1" transform="matrix(1,0,0,1,45.4584,197.467)">
            <circle cx="50.97" cy="87.387" r="2.7" style="fill:white;stroke:rgb(207,207,207);stroke-width:1.42px;"/>
        </g>
        <g id="circle1619-9-92-1" transform="matrix(1,0,0,1,45.4584,197.467)">
            <circle cx="65.97" cy="73.887" r="2.7" style="fill:white;stroke:rgb(207,207,207);stroke-width:1.42px;"/>
        </g>
        <g id="circle1619-9-3-6-5" transform="matrix(1,0,0,1,45.4584,197.467)">
            <circle cx="308.917" cy="85.739" r="2.7" style="fill:white;stroke:rgb(207,207,207);stroke-width:1.42px;"/>
        </g>
        <g id="path985-9" transform="matrix(1,0,0,1,45.4584,197.467)">
            <path d="M431.786,303.186L421.164,303.186L404.05,313.066L404.05,368.154L382.042,380.86L382.042,431.472" style="fill:none;fill-rule:nonzero;stroke:rgb(207,207,207);stroke-width:1.42px;"/>
        </g>
        <g id="path985-3" transform="matrix(1,0,0,1,45.4584,197.467)">
            <path d="M140.78,424.616L157.894,414.736L157.894,388.409" style="fill:none;fill-rule:nonzero;stroke:rgb(207,207,207);stroke-width:1.42px;"/>
        </g>
        <g id="circle976" transform="matrix(1,0,0,1,45.4584,197.467)">
            <circle cx="140.78" cy="424.616" r="2.7" style="fill:white;stroke:rgb(207,207,207);stroke-width:1.42px;"/>
        </g>
        <g id="circle978" transform="matrix(1,0,0,1,45.4584,197.467)">
            <circle cx="157.894" cy="388.409" r="2.7" style="fill:white;stroke:rgb(207,207,207);stroke-width:1.42px;"/>
        </g>
        <g id="circle1619-62-1" transform="matrix(1,0,0,1,45.4584,197.467)">
            <circle cx="382.042" cy="431.472" r="2.7" style="fill:white;stroke:rgb(207,207,207);stroke-width:1.42px;"/>
        </g>
        <circle id="circle989" cx="477.244" cy="500.653" r="2.7" style="fill:white;stroke:rgb(207,207,207);stroke-width:1.42px;"/>
        <g transform="matrix(0.253078,0,0,0.241065,492.532,571.056)">
            <g id="text1122">
                <text x="0px" y="0px" style="font-family:'ArialMT', 'Arial', sans-serif;font-size:90.709px;fill:rgb(107,107,107);">DEC 16 2025</text>
            </g>
        </g>
        <g transform="matrix(1,0,0,1,675.937,571.382)">
            <g id="text1186">
                <text x="0px" y="0px" style="font-family:'ArialMT', 'Arial', sans-serif;font-size:22.405px;fill:rgb(107,107,107);">FCTUC</text>
            </g>
        </g>
        <g transform="matrix(1,0,0,1,798.654,571.376)">
            <g id="text1186-0">
                <text x="0px" y="0px" style="font-family:'ArialMT', 'Arial', sans-serif;font-size:22.405px;fill:rgb(107,107,107);">COIMBRA</text>
            </g>
        </g>
    </g>
    <g id="Botlevel" transform="matrix(1,0,0,1,-45.4584,-197.467)">
        <path id="path1860" d="M203.657,356.446L205.369,359.411L187.768,359.411L163.929,373.174L158.099,373.174L131.25,388.675L165.255,388.675L187.13,376.046L214.973,376.046L216.685,379.011L255.768,356.446L203.657,356.446Z" style="fill:white;fill-rule:nonzero;stroke:rgb(166,166,166);stroke-width:4.25px;"/>
        <path id="path1834" d="M335.805,470.4L200.558,392.315L206.382,382.228L151.106,382.228L178.744,430.099L184.568,420.012L367.786,525.793L335.805,470.4Z" style="fill:white;fill-rule:nonzero;stroke:rgb(166,166,166);stroke-width:4.25px;"/>
        <path id="path1871" d="M231.319,533.59L193.819,468.638L161.935,450.23L150.765,430.884L150.765,397.928L181.16,450.573L228.551,477.934L244.563,505.668L290.466,532.17L301.618,525.731L319.321,556.393L248.51,556.393L259.662,549.954L231.319,533.59Z" style="fill:white;fill-rule:nonzero;stroke:rgb(166,166,166);stroke-width:4.25px;"/>
    </g>
    <g id="BotBB" transform="matrix(1,0,0,1,-45.4584,-197.467)">
        <path id="path1897" d="M131.25,388.675L116.771,388.675L116.771,372.319L125.356,367.362L151.106,382.228" style="fill:none;fill-rule:nonzero;stroke:rgb(187,187,187);stroke-opacity:0.94;stroke-width:2.27px;"/>
        <path id="path1907" d="M185.079,223.558L173.392,230.306L173.392,384.864L150.765,397.928" style="fill:none;fill-rule:nonzero;stroke:rgb(187,187,187);stroke-opacity:0.94;stroke-width:2.27px;"/>
        <path id="path1910" d="M319.321,556.393L341.048,568.937L375.368,549.123L375.368,491.764L415.173,468.782L465.933,468.782L503.143,447.299L565.821,447.299" style="fill:none;fill-rule:nonzero;stroke:rgb(187,187,187);stroke-opacity:0.94;stroke-width:2.27px;"/>
        <path id="path1915" d="M434.181,524.449L415.173,513.475L380.812,533.313L367.786,525.793M434.181,524.449L434.181,556.772L378.741,588.78L407.248,605.238L407.248,628.939" style="fill:none;fill-rule:nonzero;stroke:rgb(187,187,187);stroke-opacity:0.94;stroke-width:2.27px;"/>
    </g>
    <g id="TopBB" transform="matrix(1,0,0,1,-45.4584,-197.467)">
        <path id="path1912" d="M369.935,305.014L337.035,305.014L309.043,321.175L309.043,421.101" style="fill:none;fill-rule:nonzero;stroke:rgb(187,187,187);stroke-opacity:0.94;stroke-width:2.27px;"/>
        <path id="path1928" d="M193.033,551.553L228.902,572.262L228.902,632.961L212.946,642.173L177.803,642.173L163.439,633.88L163.439,608.92L177.803,600.627L177.803,580.876" style="fill:none;fill-rule:nonzero;stroke:rgb(187,187,187);stroke-opacity:0.94;stroke-width:2.27px;"/>
        <path id="path1945" d="M245.467,371.353L496.806,371.353" style="fill:none;fill-rule:nonzero;stroke:rgb(187,187,187);stroke-opacity:0.94;stroke-width:2.27px;"/>
        <path id="path1938" d="M332.208,261.351L375.368,261.351L395.174,272.786L395.174,327.344L375.368,338.779L286.368,338.779L255.768,356.446" style="fill:none;fill-rule:nonzero;stroke:rgb(187,187,187);stroke-opacity:0.94;stroke-width:2.27px;"/>
    </g>
    <g id="Toplevel" transform="matrix(1,0,0,1,-45.4584,-197.467)">
        <path id="path1797" d="M193.033,551.553L193.033,504.373L200.045,516.517L200.045,490.735L193.48,479.365L193.48,444.521L210.926,414.305L225.541,405.866L245.467,371.353L245.467,412.515L214.172,466.719L214.172,512.425L205.927,526.706L213.463,539.758L193.033,551.553" style="fill:white;fill-rule:nonzero;stroke:rgb(107,107,107);stroke-width:4.25px;"/>
        <path id="path1777" d="M332.623,628.939L369.935,607.397M374.861,565.536L412.173,543.994M332.623,541.151L369.935,519.608M374.861,477.748L412.173,456.206M332.623,453.362L369.935,431.82M374.861,389.959L412.173,368.417M332.623,365.574L369.935,344.031M332.623,628.939L332.623,589.922L374.861,565.536L332.623,541.151L332.623,502.134L374.861,477.748L332.623,453.362L332.623,414.345L374.861,389.959L332.623,365.574L332.623,326.556L369.935,305.014L369.935,344.031L412.173,368.417L412.173,407.434L369.935,431.82L412.173,456.206L412.173,495.223L369.935,519.608L412.173,543.994L412.173,583.011L369.935,607.397L407.248,628.939L332.623,628.939Z" style="fill:white;fill-rule:nonzero;stroke:rgb(107,107,107);stroke-width:4.25px;"/>
        <path id="path1779-7" d="M309.043,421.101L309.043,476.377L298.956,470.553L263.989,531.116L177.803,580.876L201.393,540.017L232.186,522.239L271.259,454.562L261.172,448.739L309.043,421.101" style="fill:white;fill-rule:nonzero;stroke:rgb(107,107,107);stroke-width:4.25px;"/>
        <path id="path1777-5" d="M294.896,325.978L294.896,282.894M261.106,257.698L261.106,214.614M200.212,249.77L261.106,214.614L294.896,234.122L294.896,282.894L332.208,261.351L294.896,325.978L261.106,306.469L261.106,257.698L218.868,282.084L185.079,262.575L185.079,223.558M218.868,282.084L185.079,223.558" style="fill:white;fill-rule:nonzero;stroke:rgb(107,107,107);stroke-width:4.25px;"/>
    </g>
    <g id="Holes" transform="matrix(1,0,0,1,-45.4584,-197.467)">
        <circle id="path841" cx="245.467" cy="371.353" r="3.73" style="fill:white;stroke:rgb(107,107,107);stroke-width:2.83px;"/>
        <circle id="circle844" cx="255.768" cy="356.446" r="3.73" style="fill:white;stroke:rgb(166,166,166);stroke-width:2.83px;"/>
        <circle id="circle846" cx="309.043" cy="421.101" r="3.73" style="fill:white;stroke:rgb(107,107,107);stroke-width:2.83px;"/>
        <circle id="circle848" cx="131.25" cy="388.675" r="3.73" style="fill:white;stroke:rgb(166,166,166);stroke-width:2.83px;"/>
        <circle id="circle850" cx="151.106" cy="382.228" r="3.73" style="fill:white;stroke:rgb(166,166,166);stroke-width:2.83px;"/>
        <circle id="circle852" cx="177.803" cy="580.876" r="3.73" style="fill:white;stroke:rgb(107,107,107);stroke-width:2.83px;"/>
        <circle id="circle854" cx="319.321" cy="556.393" r="3.73" style="fill:white;stroke:rgb(166,166,166);stroke-width:2.83px;"/>
        <circle id="circle856" cx="407.248" cy="628.939" r="3.73" style="fill:white;stroke:rgb(107,107,107);stroke-width:2.83px;"/>
        <circle id="circle858" cx="369.935" cy="305.014" r="3.73" style="fill:white;stroke:rgb(107,107,107);stroke-width:2.83px;"/>
        <circle id="circle860" cx="332.208" cy="261.351" r="3.73" style="fill:white;stroke:rgb(107,107,107);stroke-width:2.83px;"/>
        <circle id="circle862" cx="185.079" cy="223.558" r="3.73" style="fill:white;stroke:rgb(107,107,107);stroke-width:2.83px;"/>
        <circle id="circle864" cx="193.033" cy="551.553" r="3.73" style="fill:white;stroke:rgb(107,107,107);stroke-width:2.83px;"/>
        <circle id="circle870" cx="150.765" cy="397.928" r="3.73" style="fill:white;stroke:rgb(166,166,166);stroke-width:2.83px;"/>
        <circle id="circle872" cx="496.806" cy="371.306" r="4.121" style="fill:white;stroke:rgb(187,187,187);stroke-opacity:0.94;stroke-width:2.27px;"/>
        <circle id="circle874" cx="565.833" cy="447.299" r="2.7" style="fill:white;stroke:rgb(187,187,187);stroke-opacity:0.94;stroke-width:2.27px;"/>
        <circle id="circle899" cx="309.043" cy="338.779" r="2.7" style="fill:white;stroke:rgb(187,187,187);stroke-opacity:0.94;stroke-width:2.27px;"/>
        <circle id="circle905" cx="309.043" cy="371.353" r="2.7" style="fill:white;stroke:rgb(187,187,187);stroke-opacity:0.94;stroke-width:2.27px;"/>
        <circle id="circle1577" cx="173.392" cy="306.843" r="2.7" style="fill:white;stroke:rgb(187,187,187);stroke-opacity:0.94;stroke-width:2.27px;"/>
    </g>
    <g id="Text">
        <g id="text129">
            <path id="path4839" d="M454.049,156.666C453.903,156.895 453.736,157.103 453.549,157.291C452.924,157.916 452.184,158.228 451.33,158.228C450.476,158.228 449.747,157.926 449.143,157.322C448.518,156.697 448.205,155.958 448.205,155.103C448.205,154.249 448.518,153.52 449.143,152.916C449.747,152.291 450.476,151.978 451.33,151.978C452.184,151.978 452.924,152.28 453.549,152.885C453.736,153.093 453.903,153.312 454.049,153.541L477.893,153.541L477.893,137.916L454.049,137.916C453.903,138.145 453.736,138.353 453.549,138.541C452.924,139.166 452.184,139.478 451.33,139.478C450.476,139.478 449.747,139.176 449.143,138.572C448.518,137.947 448.205,137.208 448.205,136.353C448.205,135.499 448.518,134.77 449.143,134.166C449.747,133.541 450.476,133.228 451.33,133.228C452.184,133.228 452.924,133.53 453.549,134.135C453.736,134.343 453.903,134.562 454.049,134.791L481.018,134.791L481.018,175.416L454.049,175.416C453.903,175.645 453.736,175.853 453.549,176.041C452.924,176.666 452.184,176.978 451.33,176.978C450.476,176.978 449.747,176.666 449.143,176.041C448.518,175.437 448.205,174.708 448.205,173.853C448.205,172.999 448.518,172.27 449.143,171.666C449.747,171.041 450.476,170.728 451.33,170.728C452.184,170.728 452.924,171.03 453.549,171.635C453.736,171.843 453.903,172.062 454.049,172.291L477.893,172.291L477.893,156.666L454.049,156.666Z" style="fill:rgb(107,107,107);fill-rule:nonzero;"/>
            <path id="path4841" d="M484.143,134.385C483.913,134.239 483.705,134.062 483.518,133.853C482.893,133.249 482.58,132.52 482.58,131.666C482.58,130.812 482.893,130.083 483.518,129.478C484.122,128.853 484.851,128.541 485.705,128.541C486.559,128.541 487.288,128.853 487.893,129.478C488.518,130.083 488.83,130.812 488.83,131.666C488.83,132.52 488.528,133.249 487.924,133.853C487.715,134.062 487.497,134.239 487.268,134.385L487.268,172.291L512.268,172.291L512.268,148.853L501.33,137.916L496.236,137.916C496.09,138.145 495.924,138.353 495.736,138.541C495.111,139.166 494.372,139.478 493.518,139.478C492.663,139.478 491.924,139.176 491.299,138.572C490.695,137.947 490.393,137.208 490.393,136.353C490.393,135.499 490.695,134.77 491.299,134.166C491.924,133.541 492.663,133.228 493.518,133.228C494.372,133.228 495.111,133.53 495.736,134.135C495.924,134.343 496.09,134.562 496.236,134.791L502.893,134.791L515.393,147.291L515.393,175.416L484.143,175.416L484.143,134.385Z" style="fill:rgb(107,107,107);fill-rule:nonzero;"/>
            <path id="path4843" d="M524.361,156.666C524.215,156.895 524.049,157.103 523.861,157.291C523.236,157.916 522.497,158.228 521.643,158.228C520.788,158.228 520.049,157.926 519.424,157.322C518.82,156.697 518.518,155.958 518.518,155.103C518.518,154.249 518.82,153.52 519.424,152.916C520.049,152.291 520.788,151.978 521.643,151.978C522.497,151.978 523.236,152.28 523.861,152.885C524.049,153.093 524.215,153.312 524.361,153.541L554.861,153.541C555.007,153.312 555.184,153.093 555.393,152.885C555.997,152.28 556.726,151.978 557.58,151.978C558.434,151.978 559.163,152.291 559.768,152.916C560.393,153.52 560.705,154.249 560.705,155.103C560.705,155.958 560.393,156.697 559.768,157.322C559.163,157.926 558.434,158.228 557.58,158.228C556.726,158.228 555.997,157.916 555.393,157.291C555.184,157.103 555.007,156.895 554.861,156.666L524.361,156.666Z" style="fill:rgb(107,107,107);fill-rule:nonzero;"/>
            <path id="path4845" d="M565.393,171.135C565.622,171.28 565.84,171.447 566.049,171.635C566.653,172.26 566.955,172.999 566.955,173.853C566.955,174.708 566.643,175.437 566.018,176.041C565.413,176.666 564.684,176.978 563.83,176.978C562.976,176.978 562.247,176.666 561.643,176.041C561.018,175.437 560.705,174.708 560.705,173.853C560.705,172.999 561.018,172.26 561.643,171.635C561.83,171.447 562.038,171.28 562.268,171.135L562.268,134.791L593.518,134.791L593.518,144.166L582.58,155.103L593.518,166.041L593.518,175.416L574.361,175.416C574.215,175.645 574.049,175.853 573.861,176.041C573.236,176.666 572.497,176.978 571.643,176.978C570.788,176.978 570.049,176.666 569.424,176.041C568.82,175.437 568.518,174.708 568.518,173.853C568.518,172.999 568.82,172.27 569.424,171.666C570.049,171.041 570.788,170.728 571.643,170.728C572.497,170.728 573.236,171.03 573.861,171.635C574.049,171.843 574.215,172.062 574.361,172.291L590.393,172.291L590.393,167.603L577.893,155.103L590.393,142.603L590.393,137.916L565.393,137.916L565.393,171.135Z" style="fill:rgb(107,107,107);fill-rule:nonzero;"/>
            <path id="path4847" d="M599.768,177.385C599.997,177.53 600.215,177.697 600.424,177.885C601.028,178.51 601.33,179.249 601.33,180.103C601.33,180.958 601.018,181.687 600.393,182.291C599.788,182.916 599.059,183.228 598.205,183.228C597.351,183.228 596.622,182.916 596.018,182.291C595.393,181.687 595.08,180.958 595.08,180.103C595.08,179.249 595.393,178.51 596.018,177.885C596.205,177.697 596.413,177.53 596.643,177.385L596.643,134.385C596.413,134.239 596.205,134.062 596.018,133.853C595.393,133.249 595.08,132.52 595.08,131.666C595.08,130.812 595.393,130.083 596.018,129.478C596.622,128.853 597.351,128.541 598.205,128.541C599.059,128.541 599.788,128.853 600.393,129.478C601.018,130.083 601.33,130.812 601.33,131.666C601.33,132.52 601.028,133.249 600.424,133.853C600.215,134.062 599.997,134.239 599.768,134.385L599.768,177.385Z" style="fill:rgb(107,107,107);fill-rule:nonzero;"/>
            <path id="path4849" d="M602.893,145.322C602.663,145.176 602.455,144.999 602.268,144.791C601.643,144.187 601.33,143.458 601.33,142.603C601.33,141.749 601.643,141.02 602.268,140.416C602.872,139.791 603.601,139.478 604.455,139.478C605.309,139.478 606.038,139.791 606.643,140.416C607.268,141.02 607.58,141.749 607.58,142.603C607.58,143.458 607.278,144.187 606.674,144.791C606.465,144.999 606.247,145.176 606.018,145.322L606.018,172.291L631.018,172.291L631.018,137.916L614.986,137.916C614.84,138.145 614.674,138.353 614.486,138.541C613.861,139.166 613.122,139.478 612.268,139.478C611.413,139.478 610.674,139.176 610.049,138.572C609.445,137.947 609.143,137.208 609.143,136.353C609.143,135.499 609.445,134.77 610.049,134.166C610.674,133.541 611.413,133.228 612.268,133.228C613.122,133.228 613.861,133.53 614.486,134.135C614.674,134.343 614.84,134.562 614.986,134.791L634.143,134.791L634.143,175.416L602.893,175.416L602.893,145.322Z" style="fill:rgb(107,107,107);fill-rule:nonzero;"/>
            <path id="path4851" d="M640.393,177.385C640.622,177.53 640.84,177.697 641.049,177.885C641.653,178.51 641.955,179.249 641.955,180.103C641.955,180.958 641.643,181.687 641.018,182.291C640.413,182.916 639.684,183.228 638.83,183.228C637.976,183.228 637.247,182.916 636.643,182.291C636.018,181.687 635.705,180.958 635.705,180.103C635.705,179.249 636.018,178.51 636.643,177.885C636.83,177.697 637.038,177.53 637.268,177.385L637.268,134.385C637.038,134.239 636.83,134.062 636.643,133.853C636.018,133.249 635.705,132.52 635.705,131.666C635.705,130.812 636.018,130.083 636.643,129.478C637.247,128.853 637.976,128.541 638.83,128.541C639.684,128.541 640.413,128.853 641.018,129.478C641.643,130.083 641.955,130.812 641.955,131.666C641.955,132.52 641.653,133.249 641.049,133.853C640.84,134.062 640.622,134.239 640.393,134.385L640.393,177.385Z" style="fill:rgb(107,107,107);fill-rule:nonzero;"/>
            <path id="path4853" d="M646.643,164.885C646.872,165.03 647.09,165.197 647.299,165.385C647.903,166.01 648.205,166.749 648.205,167.603C648.205,168.458 647.893,169.197 647.268,169.822C646.663,170.426 645.934,170.728 645.08,170.728C644.226,170.728 643.497,170.426 642.893,169.822C642.268,169.197 641.955,168.458 641.955,167.603C641.955,166.749 642.268,166.01 642.893,165.385C643.08,165.197 643.288,165.03 643.518,164.885L643.518,137.916L646.643,141.041L660.705,155.103L671.643,165.947L671.643,143.76C671.413,143.614 671.205,143.437 671.018,143.228C670.393,142.624 670.08,141.895 670.08,141.041C670.08,140.187 670.382,139.458 670.986,138.853C671.611,138.228 672.351,137.916 673.205,137.916C674.059,137.916 674.788,138.228 675.393,138.853C676.018,139.458 676.33,140.187 676.33,141.041C676.33,141.895 676.028,142.624 675.424,143.228C675.215,143.437 674.997,143.614 674.768,143.76L674.768,173.853L672.705,171.791L672.705,171.822L660.705,159.697L660.705,159.791L646.643,145.635L646.643,164.885Z" style="fill:rgb(107,107,107);fill-rule:nonzero;"/>
            <path id="path4855" d="M697.049,153.541C697.195,153.312 697.372,153.093 697.58,152.885C698.184,152.28 698.913,151.978 699.768,151.978C700.622,151.978 701.351,152.291 701.955,152.916C702.58,153.52 702.893,154.249 702.893,155.103C702.893,155.958 702.58,156.697 701.955,157.322C701.351,157.926 700.622,158.228 699.768,158.228C698.913,158.228 698.184,157.916 697.58,157.291C697.372,157.103 697.195,156.895 697.049,156.666L681.018,156.666L681.018,177.385C681.247,177.53 681.465,177.697 681.674,177.885C682.278,178.51 682.58,179.249 682.58,180.103C682.58,180.958 682.268,181.687 681.643,182.291C681.038,182.916 680.309,183.228 679.455,183.228C678.601,183.228 677.872,182.916 677.268,182.291C676.643,181.687 676.33,180.958 676.33,180.103C676.33,179.249 676.643,178.51 677.268,177.885C677.455,177.697 677.663,177.53 677.893,177.385L677.893,134.791L704.861,134.791C705.007,134.562 705.184,134.343 705.393,134.135C705.997,133.53 706.726,133.228 707.58,133.228C708.434,133.228 709.163,133.541 709.768,134.166C710.393,134.77 710.705,135.499 710.705,136.353C710.705,137.208 710.393,137.947 709.768,138.572C709.163,139.176 708.434,139.478 707.58,139.478C706.726,139.478 705.997,139.166 705.393,138.541C705.184,138.353 705.007,138.145 704.861,137.916L681.018,137.916L681.018,153.541L697.049,153.541Z" style="fill:rgb(107,107,107);fill-rule:nonzero;"/>
            <path id="path4857" d="M712.268,145.322C712.038,145.176 711.83,144.999 711.643,144.791C711.018,144.187 710.705,143.458 710.705,142.603C710.705,141.749 711.018,141.02 711.643,140.416C712.247,139.791 712.976,139.478 713.83,139.478C714.684,139.478 715.413,139.791 716.018,140.416C716.643,141.02 716.955,141.749 716.955,142.603C716.955,143.458 716.653,144.187 716.049,144.791C715.84,144.999 715.622,145.176 715.393,145.322L715.393,172.291L740.393,172.291L740.393,137.916L724.361,137.916C724.215,138.145 724.049,138.353 723.861,138.541C723.236,139.166 722.497,139.478 721.643,139.478C720.788,139.478 720.049,139.176 719.424,138.572C718.82,137.947 718.518,137.208 718.518,136.353C718.518,135.499 718.82,134.77 719.424,134.166C720.049,133.541 720.788,133.228 721.643,133.228C722.497,133.228 723.236,133.53 723.861,134.135C724.049,134.343 724.215,134.562 724.361,134.791L743.518,134.791L743.518,175.416L712.268,175.416L712.268,145.322Z" style="fill:rgb(107,107,107);fill-rule:nonzero;"/>
            <path id="path4859" d="M752.486,156.666C752.34,156.895 752.174,157.103 751.986,157.291C751.361,157.916 750.622,158.228 749.768,158.228C748.913,158.228 748.174,157.926 747.549,157.322C746.945,156.697 746.643,155.958 746.643,155.103C746.643,154.249 746.945,153.52 747.549,152.916C748.174,152.291 748.913,151.978 749.768,151.978C750.622,151.978 751.361,152.28 751.986,152.885C752.174,153.093 752.34,153.312 752.486,153.541L782.986,153.541C783.132,153.312 783.309,153.093 783.518,152.885C784.122,152.28 784.851,151.978 785.705,151.978C786.559,151.978 787.288,152.291 787.893,152.916C788.518,153.52 788.83,154.249 788.83,155.103C788.83,155.958 788.518,156.697 787.893,157.322C787.288,157.926 786.559,158.228 785.705,158.228C784.851,158.228 784.122,157.916 783.518,157.291C783.309,157.103 783.132,156.895 782.986,156.666L752.486,156.666Z" style="fill:rgb(107,107,107);fill-rule:nonzero;"/>
            <path id="path4861" d="M793.518,171.135C793.747,171.28 793.965,171.447 794.174,171.635C794.778,172.26 795.08,172.999 795.08,173.853C795.08,174.708 794.768,175.437 794.143,176.041C793.538,176.666 792.809,176.978 791.955,176.978C791.101,176.978 790.372,176.666 789.768,176.041C789.143,175.437 788.83,174.708 788.83,173.853C788.83,172.999 789.143,172.26 789.768,171.635C789.955,171.447 790.163,171.28 790.393,171.135L790.393,134.791L821.643,134.791L821.643,156.666L802.486,156.666C802.34,156.895 802.174,157.103 801.986,157.291C801.361,157.916 800.622,158.228 799.768,158.228C798.913,158.228 798.174,157.926 797.549,157.322C796.945,156.697 796.643,155.958 796.643,155.103C796.643,154.249 796.945,153.52 797.549,152.916C798.174,152.291 798.913,151.978 799.768,151.978C800.622,151.978 801.361,152.28 801.986,152.885C802.174,153.093 802.34,153.312 802.486,153.541L818.518,153.541L818.518,137.916L793.518,137.916L793.518,171.135Z" style="fill:rgb(107,107,107);fill-rule:nonzero;"/>
            <path id="path4863" d="M841.955,177.385C842.184,177.53 842.403,177.697 842.611,177.885C843.215,178.51 843.518,179.249 843.518,180.103C843.518,180.958 843.205,181.687 842.58,182.291C841.976,182.916 841.247,183.228 840.393,183.228C839.538,183.228 838.799,182.916 838.174,182.291C837.57,181.687 837.268,180.958 837.268,180.103C837.268,179.249 837.58,178.51 838.205,177.885C838.392,177.697 838.601,177.53 838.83,177.385L838.83,137.916L829.049,137.916C828.903,138.145 828.736,138.353 828.549,138.541C827.924,139.166 827.184,139.478 826.33,139.478C825.476,139.478 824.747,139.176 824.143,138.572C823.518,137.947 823.205,137.208 823.205,136.353C823.205,135.499 823.518,134.77 824.143,134.166C824.747,133.541 825.476,133.228 826.33,133.228C827.184,133.228 827.924,133.53 828.549,134.135C828.736,134.343 828.903,134.562 829.049,134.791L851.736,134.791C851.882,134.562 852.059,134.343 852.268,134.135C852.872,133.53 853.601,133.228 854.455,133.228C855.309,133.228 856.038,133.541 856.643,134.166C857.268,134.77 857.58,135.499 857.58,136.353C857.58,137.208 857.268,137.947 856.643,138.572C856.038,139.176 855.309,139.478 854.455,139.478C853.601,139.478 852.872,139.166 852.268,138.541C852.059,138.353 851.882,138.145 851.736,137.916L841.955,137.916L841.955,177.385Z" style="fill:rgb(107,107,107);fill-rule:nonzero;"/>
        </g>
        <g id="text944">
            <path id="path4812" d="M521.227,248.266C521.359,248.35 521.485,248.447 521.605,248.555C521.954,248.915 522.128,249.342 522.128,249.835C522.128,250.327 521.948,250.748 521.587,251.096C521.239,251.457 520.818,251.637 520.325,251.637C519.833,251.637 519.412,251.457 519.064,251.096C518.703,250.748 518.523,250.327 518.523,249.835C518.523,249.342 518.703,248.915 519.064,248.555C519.172,248.447 519.292,248.35 519.424,248.266L519.424,234.513L528.437,225.5L537.45,234.513L537.45,251.872C537.582,251.956 537.709,252.052 537.829,252.16C538.177,252.52 538.351,252.947 538.351,253.44C538.351,253.932 538.171,254.353 537.811,254.702C537.462,255.062 537.042,255.242 536.549,255.242C536.056,255.242 535.629,255.062 535.269,254.702C534.92,254.353 534.746,253.932 534.746,253.44C534.746,252.947 534.926,252.52 535.287,252.16C535.395,252.052 535.515,251.956 535.648,251.872L535.648,235.486L528.437,228.204L521.227,235.486L521.227,248.266Z" style="fill:rgb(107,107,107);fill-rule:nonzero;"/>
            <path id="path4814" d="M541.055,244.661C541.188,244.745 541.314,244.841 541.434,244.95C541.782,245.31 541.957,245.737 541.957,246.229C541.957,246.722 541.776,247.149 541.416,247.509C541.067,247.858 540.647,248.032 540.154,248.032C539.661,248.032 539.241,247.858 538.892,247.509C538.532,247.149 538.351,246.722 538.351,246.229C538.351,245.737 538.532,245.31 538.892,244.95C539,244.841 539.12,244.745 539.253,244.661L539.253,229.105L541.055,230.907L549.167,239.019L555.476,245.274L555.476,232.476C555.344,232.392 555.224,232.289 555.115,232.169C554.755,231.821 554.575,231.4 554.575,230.907C554.575,230.415 554.749,229.994 555.097,229.646C555.458,229.285 555.885,229.105 556.377,229.105C556.87,229.105 557.291,229.285 557.639,229.646C558,229.994 558.18,230.415 558.18,230.907C558.18,231.4 558.006,231.821 557.657,232.169C557.537,232.289 557.411,232.392 557.279,232.476L557.279,249.835L556.089,248.645L556.089,248.663L549.167,241.669L549.167,241.723L541.055,233.557L541.055,244.661Z" style="fill:rgb(107,107,107);fill-rule:nonzero;"/>
            <path id="path4816" d="M560.884,244.661C561.016,244.745 561.142,244.841 561.262,244.95C561.611,245.31 561.785,245.737 561.785,246.229C561.785,246.722 561.605,247.149 561.244,247.509C560.896,247.858 560.475,248.032 559.982,248.032C559.49,248.032 559.069,247.858 558.721,247.509C558.36,247.149 558.18,246.722 558.18,246.229C558.18,245.737 558.36,245.31 558.721,244.95C558.829,244.841 558.949,244.745 559.081,244.661L559.081,229.105L560.884,230.907L568.995,239.019L575.305,245.274L575.305,232.476C575.172,232.392 575.052,232.289 574.944,232.169C574.583,231.821 574.403,231.4 574.403,230.907C574.403,230.415 574.577,229.994 574.926,229.646C575.286,229.285 575.713,229.105 576.206,229.105C576.699,229.105 577.119,229.285 577.468,229.646C577.828,229.994 578.008,230.415 578.008,230.907C578.008,231.4 577.834,231.821 577.486,232.169C577.365,232.289 577.239,232.392 577.107,232.476L577.107,249.835L575.917,248.645L575.917,248.663L568.995,241.669L568.995,241.723L560.884,233.557L560.884,244.661Z" style="fill:rgb(107,107,107);fill-rule:nonzero;"/>
            <path id="path4818" d="M578.91,227.068C578.777,226.984 578.657,226.882 578.549,226.761C578.189,226.413 578.008,225.992 578.008,225.5C578.008,225.007 578.189,224.586 578.549,224.238C578.898,223.877 579.318,223.697 579.811,223.697C580.304,223.697 580.724,223.877 581.073,224.238C581.433,224.586 581.614,225.007 581.614,225.5C581.614,225.992 581.439,226.413 581.091,226.761C580.971,226.882 580.844,226.984 580.712,227.068L580.712,248.933L595.133,248.933L595.133,232.476C595.001,232.392 594.881,232.289 594.772,232.169C594.412,231.821 594.232,231.4 594.232,230.907C594.232,230.415 594.406,229.994 594.754,229.646C595.115,229.285 595.542,229.105 596.034,229.105C596.527,229.105 596.948,229.285 597.296,229.646C597.657,229.994 597.837,230.415 597.837,230.907C597.837,231.4 597.663,231.821 597.314,232.169C597.194,232.289 597.068,232.392 596.936,232.476L596.936,250.736L578.91,250.736L578.91,227.068Z" style="fill:rgb(107,107,107);fill-rule:nonzero;"/>
            <path id="path4820" d="M600.541,248.266C600.673,248.35 600.799,248.447 600.919,248.555C601.268,248.915 601.442,249.342 601.442,249.835C601.442,250.327 601.262,250.748 600.901,251.096C600.553,251.457 600.132,251.637 599.639,251.637C599.147,251.637 598.726,251.457 598.378,251.096C598.017,250.748 597.837,250.327 597.837,249.835C597.837,249.342 598.017,248.915 598.378,248.555C598.486,248.447 598.606,248.35 598.738,248.266L598.738,234.513L607.751,225.5L616.764,234.513L616.764,251.872C616.896,251.956 617.023,252.052 617.143,252.16C617.491,252.52 617.665,252.947 617.665,253.44C617.665,253.932 617.485,254.353 617.125,254.702C616.776,255.062 616.355,255.242 615.863,255.242C615.37,255.242 614.943,255.062 614.583,254.702C614.234,254.353 614.06,253.932 614.06,253.44C614.06,252.947 614.24,252.52 614.601,252.16C614.709,252.052 614.829,251.956 614.961,251.872L614.961,235.486L607.751,228.204L600.541,235.486L600.541,248.266Z" style="fill:rgb(107,107,107);fill-rule:nonzero;"/>
            <path id="path4822" d="M618.567,227.068C618.435,226.984 618.314,226.882 618.206,226.761C617.846,226.413 617.665,225.992 617.665,225.5C617.665,225.007 617.846,224.586 618.206,224.238C618.555,223.877 618.975,223.697 619.468,223.697C619.961,223.697 620.381,223.877 620.73,224.238C621.09,224.586 621.271,225.007 621.271,225.5C621.271,225.992 621.096,226.413 620.748,226.761C620.628,226.882 620.501,226.984 620.369,227.068L620.369,248.933L634.79,248.933L634.79,245.995C634.658,245.911 634.538,245.809 634.429,245.689C634.069,245.34 633.889,244.92 633.889,244.427C633.889,243.934 634.063,243.514 634.411,243.165C634.772,242.805 635.199,242.624 635.691,242.624C636.184,242.624 636.605,242.805 636.953,243.165C637.314,243.514 637.494,243.934 637.494,244.427C637.494,244.92 637.32,245.34 636.971,245.689C636.851,245.809 636.725,245.911 636.593,245.995L636.593,250.736L618.567,250.736L618.567,227.068Z" style="fill:rgb(107,107,107);fill-rule:nonzero;"/>
            <path id="path4824" d="M665.578,251.872C665.711,251.956 665.837,252.052 665.957,252.16C666.305,252.52 666.48,252.947 666.48,253.44C666.48,253.932 666.299,254.353 665.939,254.702C665.59,255.062 665.17,255.242 664.677,255.242C664.184,255.242 663.758,255.062 663.397,254.702C663.049,254.353 662.874,253.932 662.874,253.44C662.874,252.947 663.055,252.52 663.415,252.16C663.523,252.052 663.643,251.956 663.776,251.872L663.776,235.486L656.565,228.204L649.355,235.486L649.355,248.266C649.487,248.35 649.613,248.447 649.733,248.555C650.082,248.915 650.256,249.342 650.256,249.835C650.256,250.327 650.076,250.748 649.715,251.096C649.367,251.457 648.946,251.637 648.454,251.637C647.961,251.637 647.54,251.457 647.192,251.096C646.831,250.748 646.651,250.327 646.651,249.835C646.651,249.342 646.831,248.915 647.192,248.555C647.3,248.447 647.42,248.35 647.552,248.266L647.552,234.513L656.565,225.5L664.677,233.611L672.789,225.5L673.005,225.716L679.873,232.584L681.802,234.513L681.802,244.661C681.934,244.745 682.06,244.841 682.18,244.95C682.529,245.31 682.703,245.737 682.703,246.229C682.703,246.722 682.523,247.149 682.162,247.509C681.814,247.858 681.393,248.032 680.9,248.032C680.408,248.032 679.981,247.858 679.62,247.509C679.272,247.149 679.098,246.722 679.098,246.229C679.098,245.737 679.278,245.31 679.638,244.95C679.747,244.841 679.867,244.745 679.999,244.661L679.999,235.486L679.873,235.36L672.951,228.366L672.789,228.204L665.578,235.486L665.578,251.872Z" style="fill:rgb(107,107,107);fill-rule:nonzero;"/>
            <path id="path4826" d="M694.654,238.118C694.738,237.986 694.84,237.859 694.96,237.739C695.309,237.391 695.73,237.216 696.222,237.216C696.715,237.216 697.136,237.397 697.484,237.757C697.845,238.106 698.025,238.526 698.025,239.019C698.025,239.512 697.845,239.938 697.484,240.299C697.136,240.647 696.715,240.822 696.222,240.822C695.73,240.822 695.309,240.641 694.96,240.281C694.84,240.173 694.738,240.053 694.654,239.92L685.407,239.92L685.407,248.933L698.259,248.933C698.343,248.801 698.445,248.675 698.566,248.555C698.914,248.206 699.335,248.032 699.827,248.032C700.32,248.032 700.741,248.212 701.089,248.573C701.45,248.921 701.63,249.342 701.63,249.835C701.63,250.327 701.45,250.748 701.089,251.096C700.741,251.457 700.32,251.637 699.827,251.637C699.335,251.637 698.914,251.457 698.566,251.096C698.445,250.988 698.343,250.868 698.259,250.736L683.604,250.736L683.604,227.302L699.161,227.302C699.245,227.17 699.347,227.044 699.467,226.924C699.815,226.575 700.236,226.401 700.729,226.401C701.221,226.401 701.642,226.581 701.991,226.942C702.351,227.29 702.531,227.711 702.531,228.204C702.531,228.696 702.351,229.123 701.991,229.483C701.642,229.832 701.221,230.006 700.729,230.006C700.236,230.006 699.815,229.826 699.467,229.465C699.347,229.357 699.245,229.237 699.161,229.105L685.407,229.105L685.407,238.118L694.654,238.118Z" style="fill:rgb(107,107,107);fill-rule:nonzero;"/>
            <path id="path4828" d="M714.483,238.118C714.567,237.986 714.669,237.859 714.789,237.739C715.137,237.391 715.558,237.216 716.051,237.216C716.543,237.216 716.964,237.397 717.313,237.757C717.673,238.106 717.853,238.526 717.853,239.019C717.853,239.512 717.673,239.938 717.313,240.299C716.964,240.647 716.543,240.822 716.051,240.822C715.558,240.822 715.137,240.641 714.789,240.281C714.669,240.173 714.567,240.053 714.483,239.92L705.235,239.92L705.235,248.933L718.088,248.933C718.172,248.801 718.274,248.675 718.394,248.555C718.743,248.206 719.163,248.032 719.656,248.032C720.149,248.032 720.569,248.212 720.918,248.573C721.278,248.921 721.459,249.342 721.459,249.835C721.459,250.327 721.278,250.748 720.918,251.096C720.569,251.457 720.149,251.637 719.656,251.637C719.163,251.637 718.743,251.457 718.394,251.096C718.274,250.988 718.172,250.868 718.088,250.736L703.433,250.736L703.433,227.302L718.989,227.302C719.073,227.17 719.175,227.044 719.295,226.924C719.644,226.575 720.065,226.401 720.557,226.401C721.05,226.401 721.471,226.581 721.819,226.942C722.18,227.29 722.36,227.711 722.36,228.204C722.36,228.696 722.18,229.123 721.819,229.483C721.471,229.832 721.05,230.006 720.557,230.006C720.065,230.006 719.644,229.826 719.295,229.465C719.175,229.357 719.073,229.237 718.989,229.105L705.235,229.105L705.235,238.118L714.483,238.118Z" style="fill:rgb(107,107,107);fill-rule:nonzero;"/>
            <path id="path4830" d="M733.175,251.872C733.308,251.956 733.434,252.052 733.554,252.16C733.902,252.52 734.077,252.947 734.077,253.44C734.077,253.932 733.896,254.353 733.536,254.702C733.187,255.062 732.767,255.242 732.274,255.242C731.781,255.242 731.355,255.062 730.994,254.702C730.646,254.353 730.471,253.932 730.471,253.44C730.471,252.947 730.652,252.52 731.012,252.16C731.12,252.052 731.241,251.956 731.373,251.872L731.373,229.105L725.731,229.105C725.647,229.237 725.55,229.357 725.442,229.465C725.082,229.826 724.655,230.006 724.162,230.006C723.67,230.006 723.249,229.832 722.901,229.483C722.54,229.123 722.36,228.696 722.36,228.204C722.36,227.711 722.54,227.29 722.901,226.942C723.249,226.581 723.67,226.401 724.162,226.401C724.655,226.401 725.082,226.575 725.442,226.924C725.55,227.044 725.647,227.17 725.731,227.302L738.817,227.302C738.902,227.17 739.004,227.044 739.124,226.924C739.472,226.575 739.893,226.401 740.386,226.401C740.878,226.401 741.299,226.581 741.648,226.942C742.008,227.29 742.188,227.711 742.188,228.204C742.188,228.696 742.008,229.123 741.648,229.483C741.299,229.832 740.878,230.006 740.386,230.006C739.893,230.006 739.472,229.826 739.124,229.465C739.004,229.357 738.902,229.237 738.817,229.105L733.175,229.105L733.175,251.872Z" style="fill:rgb(107,107,107);fill-rule:nonzero;"/>
            <path id="path4832" d="M744.892,251.872C745.024,251.956 745.151,252.052 745.271,252.16C745.619,252.52 745.794,252.947 745.794,253.44C745.794,253.932 745.613,254.353 745.253,254.702C744.904,255.062 744.484,255.242 743.991,255.242C743.498,255.242 743.078,255.062 742.729,254.702C742.369,254.353 742.188,253.932 742.188,253.44C742.188,252.947 742.369,252.52 742.729,252.16C742.837,252.052 742.957,251.956 743.09,251.872L743.09,227.068C742.957,226.984 742.837,226.882 742.729,226.761C742.369,226.413 742.188,225.992 742.188,225.5C742.188,225.007 742.369,224.586 742.729,224.238C743.078,223.877 743.498,223.697 743.991,223.697C744.484,223.697 744.904,223.877 745.253,224.238C745.613,224.586 745.794,225.007 745.794,225.5C745.794,225.992 745.619,226.413 745.271,226.761C745.151,226.882 745.024,226.984 744.892,227.068L744.892,251.872Z" style="fill:rgb(107,107,107);fill-rule:nonzero;"/>
            <path id="path4834" d="M748.497,244.661C748.63,244.745 748.756,244.841 748.876,244.95C749.224,245.31 749.399,245.737 749.399,246.229C749.399,246.722 749.218,247.149 748.858,247.509C748.509,247.858 748.089,248.032 747.596,248.032C747.103,248.032 746.683,247.858 746.334,247.509C745.974,247.149 745.794,246.722 745.794,246.229C745.794,245.737 745.974,245.31 746.334,244.95C746.442,244.841 746.563,244.745 746.695,244.661L746.695,229.105L748.497,230.907L756.609,239.019L762.918,245.274L762.918,232.476C762.786,232.392 762.666,232.289 762.558,232.169C762.197,231.821 762.017,231.4 762.017,230.907C762.017,230.415 762.191,229.994 762.54,229.646C762.9,229.285 763.327,229.105 763.819,229.105C764.312,229.105 764.733,229.285 765.081,229.646C765.442,229.994 765.622,230.415 765.622,230.907C765.622,231.4 765.448,231.821 765.099,232.169C764.979,232.289 764.853,232.392 764.721,232.476L764.721,249.835L763.531,248.645L763.531,248.663L756.609,241.669L756.609,241.723L748.497,233.557L748.497,244.661Z" style="fill:rgb(107,107,107);fill-rule:nonzero;"/>
            <path id="path4836" d="M778.474,227.302C778.559,227.17 778.661,227.044 778.781,226.924C779.129,226.575 779.55,226.401 780.043,226.401C780.535,226.401 780.956,226.581 781.305,226.942C781.665,227.29 781.845,227.711 781.845,228.204C781.845,228.696 781.665,229.123 781.305,229.483C780.956,229.832 780.535,230.006 780.043,230.006C779.55,230.006 779.129,229.826 778.781,229.465C778.661,229.357 778.559,229.237 778.474,229.105L768.326,229.105L768.326,248.933L782.747,248.933L782.747,239.92L778.006,239.92C777.922,240.053 777.826,240.173 777.717,240.281C777.357,240.641 776.93,240.822 776.438,240.822C775.945,240.822 775.518,240.647 775.158,240.299C774.809,239.938 774.635,239.512 774.635,239.019C774.635,238.526 774.809,238.106 775.158,237.757C775.518,237.397 775.945,237.216 776.438,237.216C776.93,237.216 777.357,237.391 777.717,237.739C777.826,237.859 777.922,237.986 778.006,238.118L784.549,238.118L784.549,250.736L766.523,250.736L766.523,227.302L778.474,227.302Z" style="fill:rgb(107,107,107);fill-rule:nonzero;"/>
        </g>
    </g>
</svg>
